<mxfile host="app.diagrams.net" modified="2022-11-23T17:07:02.446Z" agent="5.0 (Windows NT 10.0; Win64; x64) AppleWebKit/537.36 (KHTML, like Gecko) Chrome/107.0.0.0 Safari/537.36" etag="e40syf0uEFkvTlZyV0wO" version="20.6.0" type="github">
  <diagram id="i-t45R0P4q4NNxCHWem7" name="Trang-1">
    <mxGraphModel dx="2398" dy="2384" grid="1" gridSize="10" guides="1" tooltips="1" connect="1" arrows="1" fold="1" page="1" pageScale="1" pageWidth="1100" pageHeight="1700" math="0" shadow="0">
      <root>
        <mxCell id="0" />
        <mxCell id="1" parent="0" />
        <mxCell id="PMNBnTn1wtBaRZHs1nPm-1" value="Register" style="html=1;" parent="1" vertex="1">
          <mxGeometry x="70" y="360" width="110" height="50" as="geometry" />
        </mxCell>
        <mxCell id="PMNBnTn1wtBaRZHs1nPm-2" value="Sign in (user, admin)" style="html=1;" parent="1" vertex="1">
          <mxGeometry x="290" y="360" width="120" height="50" as="geometry" />
        </mxCell>
        <mxCell id="PMNBnTn1wtBaRZHs1nPm-3" value="" style="line;strokeWidth=1;fillColor=none;align=left;verticalAlign=middle;spacingTop=-1;spacingLeft=3;spacingRight=3;rotatable=0;labelPosition=right;points=[];portConstraint=eastwest;strokeColor=inherit;" parent="1" vertex="1">
          <mxGeometry x="180" y="381" width="110" height="8" as="geometry" />
        </mxCell>
        <mxCell id="PMNBnTn1wtBaRZHs1nPm-4" value="ListBookByFilter&amp;nbsp;" style="html=1;" parent="1" vertex="1">
          <mxGeometry x="340" y="200" width="110" height="50" as="geometry" />
        </mxCell>
        <mxCell id="PMNBnTn1wtBaRZHs1nPm-8" value="Admin" style="html=1;" parent="1" vertex="1">
          <mxGeometry x="60" y="530" width="110" height="50" as="geometry" />
        </mxCell>
        <mxCell id="PMNBnTn1wtBaRZHs1nPm-9" value="User" style="html=1;" parent="1" vertex="1">
          <mxGeometry x="60" y="250" width="110" height="50" as="geometry" />
        </mxCell>
        <mxCell id="PMNBnTn1wtBaRZHs1nPm-11" value="" style="endArrow=block;endFill=1;html=1;edgeStyle=orthogonalEdgeStyle;align=left;verticalAlign=top;rounded=0;" parent="1" edge="1">
          <mxGeometry x="-1" relative="1" as="geometry">
            <mxPoint x="170" y="250" as="sourcePoint" />
            <mxPoint x="340" y="220" as="targetPoint" />
            <Array as="points">
              <mxPoint x="140" y="250" />
              <mxPoint x="140" y="220" />
              <mxPoint x="300" y="220" />
            </Array>
          </mxGeometry>
        </mxCell>
        <mxCell id="PMNBnTn1wtBaRZHs1nPm-14" value="Create, update book" style="html=1;" parent="1" vertex="1">
          <mxGeometry x="370" y="510" width="110" height="50" as="geometry" />
        </mxCell>
        <mxCell id="PMNBnTn1wtBaRZHs1nPm-16" value="Update user" style="html=1;" parent="1" vertex="1">
          <mxGeometry x="370" y="580" width="110" height="50" as="geometry" />
        </mxCell>
        <mxCell id="PMNBnTn1wtBaRZHs1nPm-17" value="" style="endArrow=block;endFill=1;html=1;edgeStyle=orthogonalEdgeStyle;align=left;verticalAlign=top;rounded=0;exitX=1;exitY=0.75;exitDx=0;exitDy=0;entryX=0;entryY=0.5;entryDx=0;entryDy=0;" parent="1" source="PMNBnTn1wtBaRZHs1nPm-8" target="PMNBnTn1wtBaRZHs1nPm-16" edge="1">
          <mxGeometry x="-1" relative="1" as="geometry">
            <mxPoint x="200" y="500" as="sourcePoint" />
            <mxPoint x="360" y="600" as="targetPoint" />
            <Array as="points">
              <mxPoint x="170" y="605" />
            </Array>
          </mxGeometry>
        </mxCell>
        <mxCell id="PMNBnTn1wtBaRZHs1nPm-22" value="" style="line;strokeWidth=1;fillColor=none;align=left;verticalAlign=middle;spacingTop=-1;spacingLeft=3;spacingRight=3;rotatable=0;labelPosition=right;points=[];portConstraint=eastwest;strokeColor=inherit;" parent="1" vertex="1">
          <mxGeometry x="-1050" y="900" width="2150" height="18" as="geometry" />
        </mxCell>
        <mxCell id="PMNBnTn1wtBaRZHs1nPm-23" value="Books" style="swimlane;fontStyle=0;childLayout=stackLayout;horizontal=1;startSize=26;fillColor=none;horizontalStack=0;resizeParent=1;resizeParentMax=0;resizeLast=0;collapsible=1;marginBottom=0;" parent="1" vertex="1">
          <mxGeometry y="980" width="140" height="260" as="geometry" />
        </mxCell>
        <mxCell id="PMNBnTn1wtBaRZHs1nPm-24" value="-id:  int" style="text;strokeColor=none;fillColor=none;align=left;verticalAlign=top;spacingLeft=4;spacingRight=4;overflow=hidden;rotatable=0;points=[[0,0.5],[1,0.5]];portConstraint=eastwest;" parent="PMNBnTn1wtBaRZHs1nPm-23" vertex="1">
          <mxGeometry y="26" width="140" height="26" as="geometry" />
        </mxCell>
        <mxCell id="PMNBnTn1wtBaRZHs1nPm-25" value="-name: String" style="text;strokeColor=none;fillColor=none;align=left;verticalAlign=top;spacingLeft=4;spacingRight=4;overflow=hidden;rotatable=0;points=[[0,0.5],[1,0.5]];portConstraint=eastwest;" parent="PMNBnTn1wtBaRZHs1nPm-23" vertex="1">
          <mxGeometry y="52" width="140" height="26" as="geometry" />
        </mxCell>
        <mxCell id="PMNBnTn1wtBaRZHs1nPm-26" value="-author: String" style="text;strokeColor=none;fillColor=none;align=left;verticalAlign=top;spacingLeft=4;spacingRight=4;overflow=hidden;rotatable=0;points=[[0,0.5],[1,0.5]];portConstraint=eastwest;" parent="PMNBnTn1wtBaRZHs1nPm-23" vertex="1">
          <mxGeometry y="78" width="140" height="26" as="geometry" />
        </mxCell>
        <mxCell id="PMNBnTn1wtBaRZHs1nPm-27" value="-title: String" style="text;strokeColor=none;fillColor=none;align=left;verticalAlign=top;spacingLeft=4;spacingRight=4;overflow=hidden;rotatable=0;points=[[0,0.5],[1,0.5]];portConstraint=eastwest;" parent="PMNBnTn1wtBaRZHs1nPm-23" vertex="1">
          <mxGeometry y="104" width="140" height="26" as="geometry" />
        </mxCell>
        <mxCell id="PMNBnTn1wtBaRZHs1nPm-28" value="-countPage: int" style="text;strokeColor=none;fillColor=none;align=left;verticalAlign=top;spacingLeft=4;spacingRight=4;overflow=hidden;rotatable=0;points=[[0,0.5],[1,0.5]];portConstraint=eastwest;" parent="PMNBnTn1wtBaRZHs1nPm-23" vertex="1">
          <mxGeometry y="130" width="140" height="26" as="geometry" />
        </mxCell>
        <mxCell id="PMNBnTn1wtBaRZHs1nPm-29" value="-year: int&#xa;" style="text;strokeColor=none;fillColor=none;align=left;verticalAlign=top;spacingLeft=4;spacingRight=4;overflow=hidden;rotatable=0;points=[[0,0.5],[1,0.5]];portConstraint=eastwest;" parent="PMNBnTn1wtBaRZHs1nPm-23" vertex="1">
          <mxGeometry y="156" width="140" height="26" as="geometry" />
        </mxCell>
        <mxCell id="PMNBnTn1wtBaRZHs1nPm-31" value="-positionBook: String" style="text;strokeColor=none;fillColor=none;align=left;verticalAlign=top;spacingLeft=4;spacingRight=4;overflow=hidden;rotatable=0;points=[[0,0.5],[1,0.5]];portConstraint=eastwest;" parent="PMNBnTn1wtBaRZHs1nPm-23" vertex="1">
          <mxGeometry y="182" width="140" height="26" as="geometry" />
        </mxCell>
        <mxCell id="sz2PVV6rExKH-MHVUiy9-4" value="-userId: int" style="text;strokeColor=none;fillColor=none;align=left;verticalAlign=top;spacingLeft=4;spacingRight=4;overflow=hidden;rotatable=0;points=[[0,0.5],[1,0.5]];portConstraint=eastwest;" parent="PMNBnTn1wtBaRZHs1nPm-23" vertex="1">
          <mxGeometry y="208" width="140" height="26" as="geometry" />
        </mxCell>
        <mxCell id="PMNBnTn1wtBaRZHs1nPm-44" value="-dayBorrow: Date" style="text;strokeColor=none;fillColor=none;align=left;verticalAlign=top;spacingLeft=4;spacingRight=4;overflow=hidden;rotatable=0;points=[[0,0.5],[1,0.5]];portConstraint=eastwest;" parent="PMNBnTn1wtBaRZHs1nPm-23" vertex="1">
          <mxGeometry y="234" width="140" height="26" as="geometry" />
        </mxCell>
        <mxCell id="PMNBnTn1wtBaRZHs1nPm-32" value="Users" style="swimlane;fontStyle=0;childLayout=stackLayout;horizontal=1;startSize=26;fillColor=none;horizontalStack=0;resizeParent=1;resizeParentMax=0;resizeLast=0;collapsible=1;marginBottom=0;" parent="1" vertex="1">
          <mxGeometry x="290" y="980" width="300" height="208" as="geometry" />
        </mxCell>
        <mxCell id="PMNBnTn1wtBaRZHs1nPm-33" value="-id: int" style="text;strokeColor=none;fillColor=none;align=left;verticalAlign=top;spacingLeft=4;spacingRight=4;overflow=hidden;rotatable=0;points=[[0,0.5],[1,0.5]];portConstraint=eastwest;" parent="PMNBnTn1wtBaRZHs1nPm-32" vertex="1">
          <mxGeometry y="26" width="300" height="26" as="geometry" />
        </mxCell>
        <mxCell id="PMNBnTn1wtBaRZHs1nPm-34" value="-name: String" style="text;strokeColor=none;fillColor=none;align=left;verticalAlign=top;spacingLeft=4;spacingRight=4;overflow=hidden;rotatable=0;points=[[0,0.5],[1,0.5]];portConstraint=eastwest;" parent="PMNBnTn1wtBaRZHs1nPm-32" vertex="1">
          <mxGeometry y="52" width="300" height="26" as="geometry" />
        </mxCell>
        <mxCell id="PMNBnTn1wtBaRZHs1nPm-35" value="-mssv: String" style="text;strokeColor=none;fillColor=none;align=left;verticalAlign=top;spacingLeft=4;spacingRight=4;overflow=hidden;rotatable=0;points=[[0,0.5],[1,0.5]];portConstraint=eastwest;" parent="PMNBnTn1wtBaRZHs1nPm-32" vertex="1">
          <mxGeometry y="78" width="300" height="26" as="geometry" />
        </mxCell>
        <mxCell id="PMNBnTn1wtBaRZHs1nPm-36" value="-phoneNumber: String" style="text;strokeColor=none;fillColor=none;align=left;verticalAlign=top;spacingLeft=4;spacingRight=4;overflow=hidden;rotatable=0;points=[[0,0.5],[1,0.5]];portConstraint=eastwest;" parent="PMNBnTn1wtBaRZHs1nPm-32" vertex="1">
          <mxGeometry y="104" width="300" height="26" as="geometry" />
        </mxCell>
        <mxCell id="PMNBnTn1wtBaRZHs1nPm-37" value="-email: String" style="text;strokeColor=none;fillColor=none;align=left;verticalAlign=top;spacingLeft=4;spacingRight=4;overflow=hidden;rotatable=0;points=[[0,0.5],[1,0.5]];portConstraint=eastwest;" parent="PMNBnTn1wtBaRZHs1nPm-32" vertex="1">
          <mxGeometry y="130" width="300" height="26" as="geometry" />
        </mxCell>
        <mxCell id="PMNBnTn1wtBaRZHs1nPm-38" value="-password: String " style="text;strokeColor=none;fillColor=none;align=left;verticalAlign=top;spacingLeft=4;spacingRight=4;overflow=hidden;rotatable=0;points=[[0,0.5],[1,0.5]];portConstraint=eastwest;" parent="PMNBnTn1wtBaRZHs1nPm-32" vertex="1">
          <mxGeometry y="156" width="300" height="26" as="geometry" />
        </mxCell>
        <mxCell id="PMNBnTn1wtBaRZHs1nPm-39" value="-userType: String (admin, user, studentOtherSchool)" style="text;strokeColor=none;fillColor=none;align=left;verticalAlign=top;spacingLeft=4;spacingRight=4;overflow=hidden;rotatable=0;points=[[0,0.5],[1,0.5]];portConstraint=eastwest;" parent="PMNBnTn1wtBaRZHs1nPm-32" vertex="1">
          <mxGeometry y="182" width="300" height="26" as="geometry" />
        </mxCell>
        <mxCell id="PMNBnTn1wtBaRZHs1nPm-42" value="" style="endArrow=block;endFill=1;html=1;edgeStyle=orthogonalEdgeStyle;align=left;verticalAlign=top;rounded=0;" parent="1" edge="1">
          <mxGeometry x="-1" relative="1" as="geometry">
            <mxPoint x="170" y="530" as="sourcePoint" />
            <mxPoint x="370" y="530" as="targetPoint" />
            <Array as="points">
              <mxPoint x="330" y="530" />
              <mxPoint x="330" y="530" />
            </Array>
          </mxGeometry>
        </mxCell>
        <mxCell id="PMNBnTn1wtBaRZHs1nPm-45" value="Place" style="swimlane;fontStyle=0;childLayout=stackLayout;horizontal=1;startSize=20;fillColor=none;horizontalStack=0;resizeParent=1;resizeParentMax=0;resizeLast=0;collapsible=1;marginBottom=0;" parent="1" vertex="1">
          <mxGeometry x="30" y="1350" width="230" height="124" as="geometry" />
        </mxCell>
        <mxCell id="PMNBnTn1wtBaRZHs1nPm-46" value="-id: int" style="text;strokeColor=none;fillColor=none;align=left;verticalAlign=top;spacingLeft=4;spacingRight=4;overflow=hidden;rotatable=0;points=[[0,0.5],[1,0.5]];portConstraint=eastwest;" parent="PMNBnTn1wtBaRZHs1nPm-45" vertex="1">
          <mxGeometry y="20" width="230" height="26" as="geometry" />
        </mxCell>
        <mxCell id="PMNBnTn1wtBaRZHs1nPm-47" value="-positionPlace: String" style="text;strokeColor=none;fillColor=none;align=left;verticalAlign=top;spacingLeft=4;spacingRight=4;overflow=hidden;rotatable=0;points=[[0,0.5],[1,0.5]];portConstraint=eastwest;" parent="PMNBnTn1wtBaRZHs1nPm-45" vertex="1">
          <mxGeometry y="46" width="230" height="26" as="geometry" />
        </mxCell>
        <mxCell id="PMNBnTn1wtBaRZHs1nPm-48" value="-status: int (0,1)" style="text;strokeColor=none;fillColor=none;align=left;verticalAlign=top;spacingLeft=4;spacingRight=4;overflow=hidden;rotatable=0;points=[[0,0.5],[1,0.5]];portConstraint=eastwest;" parent="PMNBnTn1wtBaRZHs1nPm-45" vertex="1">
          <mxGeometry y="72" width="230" height="26" as="geometry" />
        </mxCell>
        <mxCell id="sz2PVV6rExKH-MHVUiy9-19" value="-userId: int" style="text;strokeColor=none;fillColor=none;align=left;verticalAlign=top;spacingLeft=4;spacingRight=4;overflow=hidden;rotatable=0;points=[[0,0.5],[1,0.5]];portConstraint=eastwest;" parent="PMNBnTn1wtBaRZHs1nPm-45" vertex="1">
          <mxGeometry y="98" width="230" height="26" as="geometry" />
        </mxCell>
        <mxCell id="sz2PVV6rExKH-MHVUiy9-1" value="" style="endArrow=open;html=1;endSize=12;startArrow=diamondThin;startSize=14;startFill=0;edgeStyle=orthogonalEdgeStyle;rounded=0;entryX=0;entryY=0.5;entryDx=0;entryDy=0;exitX=1;exitY=0.5;exitDx=0;exitDy=0;" parent="1" source="sz2PVV6rExKH-MHVUiy9-4" target="PMNBnTn1wtBaRZHs1nPm-33" edge="1">
          <mxGeometry x="0.0163" relative="1" as="geometry">
            <mxPoint x="180" y="1180" as="sourcePoint" />
            <mxPoint x="210" y="980" as="targetPoint" />
            <Array as="points">
              <mxPoint x="180" y="1201" />
              <mxPoint x="180" y="1200" />
              <mxPoint x="210" y="1200" />
              <mxPoint x="210" y="1019" />
            </Array>
            <mxPoint as="offset" />
          </mxGeometry>
        </mxCell>
        <mxCell id="sz2PVV6rExKH-MHVUiy9-2" value="0..n" style="edgeLabel;resizable=0;html=1;align=left;verticalAlign=top;" parent="sz2PVV6rExKH-MHVUiy9-1" connectable="0" vertex="1">
          <mxGeometry x="-1" relative="1" as="geometry" />
        </mxCell>
        <mxCell id="sz2PVV6rExKH-MHVUiy9-3" value="1" style="edgeLabel;resizable=0;html=1;align=right;verticalAlign=top;" parent="sz2PVV6rExKH-MHVUiy9-1" connectable="0" vertex="1">
          <mxGeometry x="1" relative="1" as="geometry">
            <mxPoint x="-10" as="offset" />
          </mxGeometry>
        </mxCell>
        <mxCell id="sz2PVV6rExKH-MHVUiy9-5" value="ListHistoryBook" style="html=1;" parent="1" vertex="1">
          <mxGeometry x="340" y="130" width="110" height="50" as="geometry" />
        </mxCell>
        <mxCell id="sz2PVV6rExKH-MHVUiy9-6" value="HistoryUserBorrowBook" style="html=1;" parent="1" vertex="1">
          <mxGeometry x="370" y="640" width="140" height="50" as="geometry" />
        </mxCell>
        <mxCell id="sz2PVV6rExKH-MHVUiy9-10" value="" style="endArrow=block;endFill=1;html=1;edgeStyle=orthogonalEdgeStyle;align=left;verticalAlign=top;rounded=0;exitX=0.5;exitY=0;exitDx=0;exitDy=0;" parent="1" source="PMNBnTn1wtBaRZHs1nPm-9" edge="1">
          <mxGeometry x="-1" y="25" relative="1" as="geometry">
            <mxPoint x="120" y="240" as="sourcePoint" />
            <mxPoint x="340" y="150" as="targetPoint" />
            <Array as="points">
              <mxPoint x="110" y="250" />
              <mxPoint x="110" y="150" />
            </Array>
            <mxPoint x="15" y="-5" as="offset" />
          </mxGeometry>
        </mxCell>
        <mxCell id="sz2PVV6rExKH-MHVUiy9-12" value="" style="endArrow=block;endFill=1;html=1;edgeStyle=orthogonalEdgeStyle;align=left;verticalAlign=top;rounded=0;exitX=0.75;exitY=1;exitDx=0;exitDy=0;" parent="1" source="PMNBnTn1wtBaRZHs1nPm-8" edge="1">
          <mxGeometry x="-1" relative="1" as="geometry">
            <mxPoint x="80" y="470" as="sourcePoint" />
            <mxPoint x="370" y="665" as="targetPoint" />
            <Array as="points">
              <mxPoint x="143" y="665" />
            </Array>
          </mxGeometry>
        </mxCell>
        <mxCell id="sz2PVV6rExKH-MHVUiy9-13" value="Place" style="html=1;" parent="1" vertex="1">
          <mxGeometry x="330" y="50" width="110" height="50" as="geometry" />
        </mxCell>
        <mxCell id="sz2PVV6rExKH-MHVUiy9-14" value="" style="endArrow=block;endFill=1;html=1;edgeStyle=orthogonalEdgeStyle;align=left;verticalAlign=top;rounded=0;exitX=0.193;exitY=-0.044;exitDx=0;exitDy=0;exitPerimeter=0;" parent="1" source="PMNBnTn1wtBaRZHs1nPm-9" edge="1">
          <mxGeometry x="-1" relative="1" as="geometry">
            <mxPoint x="115" y="172.5" as="sourcePoint" />
            <mxPoint x="330" y="70" as="targetPoint" />
            <Array as="points">
              <mxPoint x="81" y="250" />
              <mxPoint x="90" y="250" />
              <mxPoint x="90" y="70" />
            </Array>
          </mxGeometry>
        </mxCell>
        <mxCell id="sz2PVV6rExKH-MHVUiy9-15" value="" style="endArrow=block;endFill=1;html=1;edgeStyle=orthogonalEdgeStyle;align=left;verticalAlign=top;rounded=0;entryX=1;entryY=0.5;entryDx=0;entryDy=0;exitX=1;exitY=0.5;exitDx=0;exitDy=0;" parent="1" source="PMNBnTn1wtBaRZHs1nPm-33" target="sz2PVV6rExKH-MHVUiy9-19" edge="1">
          <mxGeometry x="-0.9026" y="10" relative="1" as="geometry">
            <mxPoint x="520" y="1020" as="sourcePoint" />
            <mxPoint x="310" y="1400" as="targetPoint" />
            <Array as="points">
              <mxPoint x="590" y="1020" />
              <mxPoint x="610" y="1020" />
              <mxPoint x="610" y="1461" />
            </Array>
            <mxPoint as="offset" />
          </mxGeometry>
        </mxCell>
        <mxCell id="sz2PVV6rExKH-MHVUiy9-20" value="1" style="edgeLabel;resizable=0;html=1;align=right;verticalAlign=top;" parent="1" connectable="0" vertex="1">
          <mxGeometry x="600" y="990" as="geometry" />
        </mxCell>
        <mxCell id="sz2PVV6rExKH-MHVUiy9-21" value="1" style="edgeLabel;resizable=0;html=1;align=right;verticalAlign=top;" parent="1" connectable="0" vertex="1">
          <mxGeometry x="270" y="1470" as="geometry" />
        </mxCell>
        <mxCell id="wgvQ3o1FkacQmC9o5JXv-1" value="Front End" style="rounded=0;whiteSpace=wrap;html=1;" parent="1" vertex="1">
          <mxGeometry x="-890" y="360" width="180" height="90" as="geometry" />
        </mxCell>
        <mxCell id="wgvQ3o1FkacQmC9o5JXv-3" value="BackEnd" style="rounded=0;whiteSpace=wrap;html=1;" parent="1" vertex="1">
          <mxGeometry x="-480" y="360" width="190" height="90" as="geometry" />
        </mxCell>
        <mxCell id="wgvQ3o1FkacQmC9o5JXv-4" value="&lt;span style=&quot;color: rgb(52, 52, 52); font-family: &amp;quot;Segoe UI&amp;quot;, &amp;quot;Helvetica Neue&amp;quot;, &amp;quot;Droid Sans&amp;quot;, Arial, Tahoma, Geneva, sans-serif; font-size: 14px; text-align: right; background-color: rgb(255, 255, 255);&quot;&gt;Xây dựng hệ thống quản lý sách của thư viện.&lt;/span&gt;" style="rounded=0;whiteSpace=wrap;html=1;" parent="1" vertex="1">
          <mxGeometry x="-760" y="50" width="320" height="60" as="geometry" />
        </mxCell>
        <mxCell id="wgvQ3o1FkacQmC9o5JXv-5" value="Website" style="rounded=0;whiteSpace=wrap;html=1;" parent="1" vertex="1">
          <mxGeometry x="-660" y="180" width="120" height="60" as="geometry" />
        </mxCell>
        <mxCell id="wgvQ3o1FkacQmC9o5JXv-6" value="" style="endArrow=block;endFill=1;html=1;edgeStyle=orthogonalEdgeStyle;align=left;verticalAlign=top;rounded=0;entryX=0.5;entryY=0;entryDx=0;entryDy=0;exitX=0.5;exitY=1;exitDx=0;exitDy=0;" parent="1" source="wgvQ3o1FkacQmC9o5JXv-4" target="wgvQ3o1FkacQmC9o5JXv-5" edge="1">
          <mxGeometry x="-1" relative="1" as="geometry">
            <mxPoint x="-920" y="150" as="sourcePoint" />
            <mxPoint x="-760" y="150" as="targetPoint" />
          </mxGeometry>
        </mxCell>
        <mxCell id="wgvQ3o1FkacQmC9o5JXv-8" value="" style="endArrow=block;endFill=1;html=1;edgeStyle=orthogonalEdgeStyle;align=left;verticalAlign=top;rounded=0;exitX=0.5;exitY=1;exitDx=0;exitDy=0;entryX=0.5;entryY=0;entryDx=0;entryDy=0;" parent="1" source="wgvQ3o1FkacQmC9o5JXv-5" target="wgvQ3o1FkacQmC9o5JXv-1" edge="1">
          <mxGeometry x="-1" relative="1" as="geometry">
            <mxPoint x="-750" y="120" as="sourcePoint" />
            <mxPoint x="-960" y="280" as="targetPoint" />
            <Array as="points">
              <mxPoint x="-760" y="280" />
              <mxPoint x="-960" y="280" />
            </Array>
          </mxGeometry>
        </mxCell>
        <mxCell id="wgvQ3o1FkacQmC9o5JXv-9" value="" style="endArrow=block;endFill=1;html=1;edgeStyle=orthogonalEdgeStyle;align=left;verticalAlign=top;rounded=0;entryX=0.559;entryY=0.02;entryDx=0;entryDy=0;entryPerimeter=0;exitX=0.5;exitY=1;exitDx=0;exitDy=0;" parent="1" source="wgvQ3o1FkacQmC9o5JXv-5" target="wgvQ3o1FkacQmC9o5JXv-3" edge="1">
          <mxGeometry x="-1" relative="1" as="geometry">
            <mxPoint x="-760" y="250" as="sourcePoint" />
            <mxPoint x="-570" y="300" as="targetPoint" />
            <Array as="points">
              <mxPoint x="-600" y="280" />
              <mxPoint x="-374" y="280" />
            </Array>
          </mxGeometry>
        </mxCell>
        <mxCell id="wgvQ3o1FkacQmC9o5JXv-10" value="Đặt chỗ trước trên thư viện: nếu chỗ chưa được đặt thì status của Place sẽ là 0, nếu đặt rồi sẽ là 1&amp;nbsp;" style="rounded=0;whiteSpace=wrap;html=1;" parent="1" vertex="1">
          <mxGeometry x="520" y="50" width="350" height="50" as="geometry" />
        </mxCell>
        <mxCell id="wgvQ3o1FkacQmC9o5JXv-11" value="Xem lịch sử sách đã và đang mượn,&amp;nbsp; nếu như sách đã trả lại thư viện thì ghi là Đã trả, còn không sẽ cho user xem thời hạn mượn còn lại, nếu user muốn gia hạn sẽ có thể gia hạn thêm tối đa 1 tháng" style="rounded=0;whiteSpace=wrap;html=1;" parent="1" vertex="1">
          <mxGeometry x="520" y="120" width="350" height="70" as="geometry" />
        </mxCell>
        <mxCell id="wgvQ3o1FkacQmC9o5JXv-12" value="Xem danh sách các cuốn sách còn lại trên thư viện để biết sách mình cần mượn có còn hay không, có tính năng lọc theo tên tác giả, nội dung, năm sản xuất,..." style="rounded=0;whiteSpace=wrap;html=1;" parent="1" vertex="1">
          <mxGeometry x="520" y="200" width="350" height="50" as="geometry" />
        </mxCell>
        <mxCell id="wgvQ3o1FkacQmC9o5JXv-13" value="Đăng ký chỉ dành riêng cho user và đăng nhập cho cả hai bên là user và admin" style="rounded=0;whiteSpace=wrap;html=1;" parent="1" vertex="1">
          <mxGeometry x="520" y="360" width="350" height="50" as="geometry" />
        </mxCell>
        <mxCell id="wgvQ3o1FkacQmC9o5JXv-15" value="Tạo sách, cập nhật sách&amp;nbsp;" style="rounded=0;whiteSpace=wrap;html=1;" parent="1" vertex="1">
          <mxGeometry x="520" y="510" width="350" height="50" as="geometry" />
        </mxCell>
        <mxCell id="wgvQ3o1FkacQmC9o5JXv-16" value="Cập nhật tài khoản sinh viên, nếu sinh viên mà mượn sách quá hạn sẽ bị khóa tài khoản cho đến khi giả lại sách (quá hạn tối đa 7 ngày)" style="rounded=0;whiteSpace=wrap;html=1;" parent="1" vertex="1">
          <mxGeometry x="520" y="580" width="350" height="50" as="geometry" />
        </mxCell>
        <mxCell id="wgvQ3o1FkacQmC9o5JXv-18" value="Xem lịch sử mượn trả sách của sinh viên" style="rounded=0;whiteSpace=wrap;html=1;" parent="1" vertex="1">
          <mxGeometry x="520" y="640" width="350" height="50" as="geometry" />
        </mxCell>
        <mxCell id="wgvQ3o1FkacQmC9o5JXv-21" value="Layout&lt;br&gt;HTML, CSS, Bootstrap" style="rounded=0;whiteSpace=wrap;html=1;" parent="1" vertex="1">
          <mxGeometry x="-1020" y="590" width="160" height="60" as="geometry" />
        </mxCell>
        <mxCell id="wgvQ3o1FkacQmC9o5JXv-22" value="" style="endArrow=block;endFill=1;html=1;edgeStyle=orthogonalEdgeStyle;align=left;verticalAlign=top;rounded=0;exitX=0.5;exitY=1;exitDx=0;exitDy=0;" parent="1" edge="1">
          <mxGeometry x="-1" relative="1" as="geometry">
            <mxPoint x="-800" y="450" as="sourcePoint" />
            <mxPoint x="-940" y="590" as="targetPoint" />
            <Array as="points">
              <mxPoint x="-800" y="490" />
              <mxPoint x="-940" y="490" />
              <mxPoint x="-940" y="570" />
            </Array>
          </mxGeometry>
        </mxCell>
        <mxCell id="wgvQ3o1FkacQmC9o5JXv-23" value="Javascript, ReactJS" style="rounded=0;whiteSpace=wrap;html=1;" parent="1" vertex="1">
          <mxGeometry x="-790" y="590" width="160" height="60" as="geometry" />
        </mxCell>
        <mxCell id="wgvQ3o1FkacQmC9o5JXv-27" value="" style="endArrow=block;endFill=1;html=1;edgeStyle=orthogonalEdgeStyle;align=left;verticalAlign=top;rounded=0;entryX=0.565;entryY=-0.023;entryDx=0;entryDy=0;entryPerimeter=0;" parent="1" target="wgvQ3o1FkacQmC9o5JXv-23" edge="1">
          <mxGeometry x="-0.8947" y="20" relative="1" as="geometry">
            <mxPoint x="-800" y="460" as="sourcePoint" />
            <mxPoint x="-720" y="550" as="targetPoint" />
            <Array as="points">
              <mxPoint x="-800" y="490" />
              <mxPoint x="-700" y="490" />
            </Array>
            <mxPoint as="offset" />
          </mxGeometry>
        </mxCell>
        <mxCell id="wgvQ3o1FkacQmC9o5JXv-29" value="Javascript, Nodejs, Express" style="rounded=0;whiteSpace=wrap;html=1;" parent="1" vertex="1">
          <mxGeometry x="-570" y="590" width="120" height="60" as="geometry" />
        </mxCell>
        <mxCell id="wgvQ3o1FkacQmC9o5JXv-30" value="ORM&lt;br&gt;Sequelize" style="rounded=0;whiteSpace=wrap;html=1;" parent="1" vertex="1">
          <mxGeometry x="-400" y="590" width="120" height="60" as="geometry" />
        </mxCell>
        <mxCell id="wgvQ3o1FkacQmC9o5JXv-31" value="Design API&lt;br&gt;Rest API" style="rounded=0;whiteSpace=wrap;html=1;" parent="1" vertex="1">
          <mxGeometry x="-240" y="590" width="120" height="60" as="geometry" />
        </mxCell>
        <mxCell id="wgvQ3o1FkacQmC9o5JXv-32" value="" style="endArrow=block;endFill=1;html=1;edgeStyle=orthogonalEdgeStyle;align=left;verticalAlign=top;rounded=0;entryX=0.5;entryY=0;entryDx=0;entryDy=0;exitX=0.545;exitY=1.011;exitDx=0;exitDy=0;exitPerimeter=0;" parent="1" source="wgvQ3o1FkacQmC9o5JXv-3" target="wgvQ3o1FkacQmC9o5JXv-29" edge="1">
          <mxGeometry x="-1" relative="1" as="geometry">
            <mxPoint x="-690" y="480" as="sourcePoint" />
            <mxPoint x="-530" y="480" as="targetPoint" />
            <Array as="points">
              <mxPoint x="-376" y="490" />
              <mxPoint x="-510" y="490" />
            </Array>
          </mxGeometry>
        </mxCell>
        <mxCell id="wgvQ3o1FkacQmC9o5JXv-34" value="" style="endArrow=block;endFill=1;html=1;edgeStyle=orthogonalEdgeStyle;align=left;verticalAlign=top;rounded=0;entryX=0.5;entryY=0;entryDx=0;entryDy=0;" parent="1" target="wgvQ3o1FkacQmC9o5JXv-30" edge="1">
          <mxGeometry x="-1" relative="1" as="geometry">
            <mxPoint x="-374" y="450" as="sourcePoint" />
            <mxPoint x="-530" y="480" as="targetPoint" />
            <Array as="points">
              <mxPoint x="-374" y="490" />
              <mxPoint x="-340" y="490" />
            </Array>
          </mxGeometry>
        </mxCell>
        <mxCell id="wgvQ3o1FkacQmC9o5JXv-36" value="" style="endArrow=block;endFill=1;html=1;edgeStyle=orthogonalEdgeStyle;align=left;verticalAlign=top;rounded=0;" parent="1" edge="1">
          <mxGeometry x="-1" relative="1" as="geometry">
            <mxPoint x="-360" y="450" as="sourcePoint" />
            <mxPoint x="-168" y="590" as="targetPoint" />
            <Array as="points">
              <mxPoint x="-370" y="450" />
              <mxPoint x="-370" y="490" />
              <mxPoint x="-168" y="490" />
            </Array>
          </mxGeometry>
        </mxCell>
        <mxCell id="wgvQ3o1FkacQmC9o5JXv-38" value="Test API&lt;br&gt;Postman" style="rounded=0;whiteSpace=wrap;html=1;" parent="1" vertex="1">
          <mxGeometry x="-490" y="740" width="120" height="60" as="geometry" />
        </mxCell>
        <mxCell id="wgvQ3o1FkacQmC9o5JXv-39" value="&lt;span style=&quot;color: rgb(77, 81, 86); font-family: arial, sans-serif; text-align: left; background-color: rgb(255, 255, 255);&quot;&gt;&lt;font style=&quot;font-size: 12px;&quot;&gt;Version Control System&lt;/font&gt;&lt;br&gt;&lt;font style=&quot;font-size: 12px;&quot;&gt;GIT&lt;/font&gt;&lt;br&gt;&lt;/span&gt;" style="rounded=0;whiteSpace=wrap;html=1;" parent="1" vertex="1">
          <mxGeometry x="-1060" y="280" width="170" height="60" as="geometry" />
        </mxCell>
        <mxCell id="wgvQ3o1FkacQmC9o5JXv-40" value="" style="endArrow=block;endFill=1;html=1;edgeStyle=orthogonalEdgeStyle;align=left;verticalAlign=top;rounded=0;exitX=0.01;exitY=0.397;exitDx=0;exitDy=0;exitPerimeter=0;entryX=0.583;entryY=-0.043;entryDx=0;entryDy=0;entryPerimeter=0;" parent="1" source="wgvQ3o1FkacQmC9o5JXv-5" target="wgvQ3o1FkacQmC9o5JXv-39" edge="1">
          <mxGeometry x="-1" y="14" relative="1" as="geometry">
            <mxPoint x="-790" y="160" as="sourcePoint" />
            <mxPoint x="-1040" y="220" as="targetPoint" />
            <Array as="points">
              <mxPoint x="-961" y="204" />
            </Array>
            <mxPoint x="-4" y="-10" as="offset" />
          </mxGeometry>
        </mxCell>
        <mxCell id="wgvQ3o1FkacQmC9o5JXv-42" value="Database&lt;br&gt;Mysql" style="rounded=0;whiteSpace=wrap;html=1;fontSize=12;" parent="1" vertex="1">
          <mxGeometry x="-310" y="740" width="120" height="60" as="geometry" />
        </mxCell>
        <mxCell id="wgvQ3o1FkacQmC9o5JXv-43" value="" style="endArrow=block;endFill=1;html=1;edgeStyle=orthogonalEdgeStyle;align=left;verticalAlign=top;rounded=0;fontSize=12;exitX=0.5;exitY=1;exitDx=0;exitDy=0;" parent="1" source="wgvQ3o1FkacQmC9o5JXv-3" target="wgvQ3o1FkacQmC9o5JXv-38" edge="1">
          <mxGeometry x="-1" relative="1" as="geometry">
            <mxPoint x="-380" y="460" as="sourcePoint" />
            <mxPoint x="-310" y="640" as="targetPoint" />
            <Array as="points">
              <mxPoint x="-380" y="450" />
              <mxPoint x="-380" y="490" />
              <mxPoint x="-430" y="490" />
            </Array>
          </mxGeometry>
        </mxCell>
        <mxCell id="wgvQ3o1FkacQmC9o5JXv-45" value="" style="endArrow=block;endFill=1;html=1;edgeStyle=orthogonalEdgeStyle;align=left;verticalAlign=top;rounded=0;fontSize=12;entryX=0.417;entryY=0;entryDx=0;entryDy=0;entryPerimeter=0;" parent="1" target="wgvQ3o1FkacQmC9o5JXv-42" edge="1">
          <mxGeometry x="-1" relative="1" as="geometry">
            <mxPoint x="-370" y="454" as="sourcePoint" />
            <mxPoint x="-260" y="720" as="targetPoint" />
            <Array as="points">
              <mxPoint x="-370" y="490" />
              <mxPoint x="-260" y="490" />
            </Array>
          </mxGeometry>
        </mxCell>
        <mxCell id="wgvQ3o1FkacQmC9o5JXv-47" value="ForgotPassword" style="rounded=0;whiteSpace=wrap;html=1;fontSize=12;" parent="1" vertex="1">
          <mxGeometry x="290" y="420" width="120" height="50" as="geometry" />
        </mxCell>
        <mxCell id="wgvQ3o1FkacQmC9o5JXv-49" value="Nếu user quên mật khẩu thì sẽ cho sửa lại mật khẩu nếu như điền đúng mssv, số điện thoại, email" style="rounded=0;whiteSpace=wrap;html=1;" parent="1" vertex="1">
          <mxGeometry x="520" y="420" width="350" height="50" as="geometry" />
        </mxCell>
        <mxCell id="uZuEM_bw6iPWwp2u1Iur-1" value="" style="endArrow=none;html=1;rounded=0;exitX=0.466;exitY=0.389;exitDx=0;exitDy=0;exitPerimeter=0;" parent="1" source="PMNBnTn1wtBaRZHs1nPm-22" edge="1">
          <mxGeometry width="50" height="50" relative="1" as="geometry">
            <mxPoint x="-160" y="750" as="sourcePoint" />
            <mxPoint x="-1" as="targetPoint" />
          </mxGeometry>
        </mxCell>
        <mxCell id="XsTKVomyEp_vysgjA1EA-1" value="CardStudent" style="swimlane;fontStyle=0;childLayout=stackLayout;horizontal=1;startSize=26;fillColor=none;horizontalStack=0;resizeParent=1;resizeParentMax=0;resizeLast=0;collapsible=1;marginBottom=0;" parent="1" vertex="1">
          <mxGeometry x="700" y="980" width="140" height="156" as="geometry" />
        </mxCell>
        <mxCell id="XsTKVomyEp_vysgjA1EA-2" value="-id: int" style="text;strokeColor=none;fillColor=none;align=left;verticalAlign=top;spacingLeft=4;spacingRight=4;overflow=hidden;rotatable=0;points=[[0,0.5],[1,0.5]];portConstraint=eastwest;" parent="XsTKVomyEp_vysgjA1EA-1" vertex="1">
          <mxGeometry y="26" width="140" height="26" as="geometry" />
        </mxCell>
        <mxCell id="XsTKVomyEp_vysgjA1EA-3" value="-nameUser:  String" style="text;strokeColor=none;fillColor=none;align=left;verticalAlign=top;spacingLeft=4;spacingRight=4;overflow=hidden;rotatable=0;points=[[0,0.5],[1,0.5]];portConstraint=eastwest;" parent="XsTKVomyEp_vysgjA1EA-1" vertex="1">
          <mxGeometry y="52" width="140" height="26" as="geometry" />
        </mxCell>
        <mxCell id="XsTKVomyEp_vysgjA1EA-4" value="-school: String" style="text;strokeColor=none;fillColor=none;align=left;verticalAlign=top;spacingLeft=4;spacingRight=4;overflow=hidden;rotatable=0;points=[[0,0.5],[1,0.5]];portConstraint=eastwest;" parent="XsTKVomyEp_vysgjA1EA-1" vertex="1">
          <mxGeometry y="78" width="140" height="26" as="geometry" />
        </mxCell>
        <mxCell id="XsTKVomyEp_vysgjA1EA-5" value="-balance: int" style="text;strokeColor=none;fillColor=none;align=left;verticalAlign=top;spacingLeft=4;spacingRight=4;overflow=hidden;rotatable=0;points=[[0,0.5],[1,0.5]];portConstraint=eastwest;" parent="XsTKVomyEp_vysgjA1EA-1" vertex="1">
          <mxGeometry y="104" width="140" height="26" as="geometry" />
        </mxCell>
        <mxCell id="XsTKVomyEp_vysgjA1EA-6" value="-userId: int" style="text;strokeColor=none;fillColor=none;align=left;verticalAlign=top;spacingLeft=4;spacingRight=4;overflow=hidden;rotatable=0;points=[[0,0.5],[1,0.5]];portConstraint=eastwest;" parent="XsTKVomyEp_vysgjA1EA-1" vertex="1">
          <mxGeometry y="130" width="140" height="26" as="geometry" />
        </mxCell>
        <mxCell id="XsTKVomyEp_vysgjA1EA-11" value="" style="endArrow=block;endFill=1;html=1;edgeStyle=orthogonalEdgeStyle;align=left;verticalAlign=top;rounded=0;exitX=1;exitY=0.5;exitDx=0;exitDy=0;entryX=0;entryY=0.5;entryDx=0;entryDy=0;" parent="1" target="XsTKVomyEp_vysgjA1EA-6" edge="1">
          <mxGeometry x="-0.9026" y="10" relative="1" as="geometry">
            <mxPoint x="590" y="1019.5" as="sourcePoint" />
            <mxPoint x="670" y="1140" as="targetPoint" />
            <Array as="points">
              <mxPoint x="590" y="1021" />
              <mxPoint x="610" y="1021" />
              <mxPoint x="610" y="1123" />
            </Array>
            <mxPoint as="offset" />
          </mxGeometry>
        </mxCell>
        <mxCell id="XsTKVomyEp_vysgjA1EA-12" value="1" style="edgeLabel;resizable=0;html=1;align=right;verticalAlign=top;" parent="1" connectable="0" vertex="1">
          <mxGeometry x="695" y="1130" as="geometry" />
        </mxCell>
        <mxCell id="XsTKVomyEp_vysgjA1EA-13" value="-Tổng số quyển sách của một loại sách sẽ không được ghi vào trong db mà sẽ được count ra api show ra màn hình&lt;br&gt;-sinh viên mượn sách nếu sách không được tìm thấy sẽ show ra màn hình thời gian ngắn nhất có thể mượn&lt;br&gt;-sách mượn sẽ có timeline trả là 2 tháng và có thể gia hạn thêm tối đa 1 tháng.&lt;br&gt;-sau 1 ngày thì sẽ reset lại 2 trường status về 0 và userId là null của bảng Place" style="rounded=0;whiteSpace=wrap;html=1;" parent="1" vertex="1">
          <mxGeometry x="810" y="1180" width="280" height="230" as="geometry" />
        </mxCell>
        <mxCell id="J5_ubwYrpImXxwMJO44a-1" value="index" style="rounded=0;whiteSpace=wrap;html=1;" parent="1" vertex="1">
          <mxGeometry x="-1020" y="1128" width="120" height="60" as="geometry" />
        </mxCell>
        <mxCell id="J5_ubwYrpImXxwMJO44a-2" value="router" style="rounded=0;whiteSpace=wrap;html=1;" parent="1" vertex="1">
          <mxGeometry x="-840" y="1130" width="120" height="60" as="geometry" />
        </mxCell>
        <mxCell id="J5_ubwYrpImXxwMJO44a-3" value="controller" style="rounded=0;whiteSpace=wrap;html=1;" parent="1" vertex="1">
          <mxGeometry x="-660" y="1130" width="120" height="60" as="geometry" />
        </mxCell>
        <mxCell id="J5_ubwYrpImXxwMJO44a-4" value="migration" style="rounded=0;whiteSpace=wrap;html=1;" parent="1" vertex="1">
          <mxGeometry x="-310" y="1130" width="120" height="60" as="geometry" />
        </mxCell>
        <mxCell id="J5_ubwYrpImXxwMJO44a-5" value="models" style="rounded=0;whiteSpace=wrap;html=1;" parent="1" vertex="1">
          <mxGeometry x="-480" y="1130" width="120" height="60" as="geometry" />
        </mxCell>
        <mxCell id="J5_ubwYrpImXxwMJO44a-6" value="db" style="shape=cylinder3;whiteSpace=wrap;html=1;boundedLbl=1;backgroundOutline=1;size=15;" parent="1" vertex="1">
          <mxGeometry x="-160" y="1118" width="60" height="80" as="geometry" />
        </mxCell>
        <mxCell id="5y8kFZeuz5u2EM3Kr_l1-4" value="tạo jwt" style="html=1;verticalAlign=bottom;endArrow=block;rounded=0;" parent="1" edge="1">
          <mxGeometry y="10" width="80" relative="1" as="geometry">
            <mxPoint x="-900" y="1434.5" as="sourcePoint" />
            <mxPoint x="-820" y="1434.5" as="targetPoint" />
            <mxPoint as="offset" />
          </mxGeometry>
        </mxCell>
        <mxCell id="5y8kFZeuz5u2EM3Kr_l1-5" value="login&lt;br&gt;(decode password)" style="html=1;" parent="1" vertex="1">
          <mxGeometry x="-1010" y="1410" width="110" height="50" as="geometry" />
        </mxCell>
        <mxCell id="5y8kFZeuz5u2EM3Kr_l1-6" value="authentication&lt;br&gt;(decode userType)" style="html=1;" parent="1" vertex="1">
          <mxGeometry x="-820" y="1410" width="110" height="50" as="geometry" />
        </mxCell>
        <mxCell id="5y8kFZeuz5u2EM3Kr_l1-7" value="&lt;div style=&quot;text-align: center;&quot;&gt;&lt;span style=&quot;font-size: 11px; background-color: rgb(255, 255, 255);&quot;&gt;session, mã hóa userType&lt;/span&gt;&lt;/div&gt;" style="text;whiteSpace=wrap;html=1;" parent="1" vertex="1">
          <mxGeometry x="-890" y="1434" width="50" height="40" as="geometry" />
        </mxCell>
        <mxCell id="5y8kFZeuz5u2EM3Kr_l1-9" value="authorization&lt;br&gt;(phân quyền theo &lt;br&gt;userType)" style="html=1;" parent="1" vertex="1">
          <mxGeometry x="-630" y="1410" width="110" height="50" as="geometry" />
        </mxCell>
        <mxCell id="5y8kFZeuz5u2EM3Kr_l1-10" value="tạo req" style="html=1;verticalAlign=bottom;endArrow=block;rounded=0;" parent="1" edge="1">
          <mxGeometry width="80" relative="1" as="geometry">
            <mxPoint x="-710" y="1434.5" as="sourcePoint" />
            <mxPoint x="-630" y="1434.5" as="targetPoint" />
          </mxGeometry>
        </mxCell>
        <mxCell id="5y8kFZeuz5u2EM3Kr_l1-11" value="Register" style="html=1;" parent="1" vertex="1">
          <mxGeometry x="-1010" y="1280" width="110" height="50" as="geometry" />
        </mxCell>
        <mxCell id="5y8kFZeuz5u2EM3Kr_l1-12" value="Note: sử dụng bcryptjs để mã&lt;br&gt;&amp;nbsp;hóa password rồi mới đưa &lt;br&gt;vào database&amp;nbsp;" style="verticalAlign=top;align=left;spacingTop=8;spacingLeft=2;spacingRight=12;shape=cube;size=10;direction=south;fontStyle=4;html=1;" parent="1" vertex="1">
          <mxGeometry x="-840" y="1271.25" width="180" height="67.5" as="geometry" />
        </mxCell>
        <mxCell id="5y8kFZeuz5u2EM3Kr_l1-13" value="Controller" style="html=1;" parent="1" vertex="1">
          <mxGeometry x="-1020" y="1520" width="110" height="50" as="geometry" />
        </mxCell>
        <mxCell id="5y8kFZeuz5u2EM3Kr_l1-14" value="tạo api" style="html=1;verticalAlign=bottom;endArrow=block;rounded=0;" parent="1" edge="1">
          <mxGeometry width="80" relative="1" as="geometry">
            <mxPoint x="-910" y="1544.62" as="sourcePoint" />
            <mxPoint x="-830" y="1544.62" as="targetPoint" />
          </mxGeometry>
        </mxCell>
        <mxCell id="5y8kFZeuz5u2EM3Kr_l1-15" value="router riêng để &lt;br&gt;config api" style="html=1;" parent="1" vertex="1">
          <mxGeometry x="-830" y="1520" width="110" height="50" as="geometry" />
        </mxCell>
        <mxCell id="5y8kFZeuz5u2EM3Kr_l1-16" value="router/index.js" style="html=1;" parent="1" vertex="1">
          <mxGeometry x="-640" y="1520" width="110" height="50" as="geometry" />
        </mxCell>
        <mxCell id="5y8kFZeuz5u2EM3Kr_l1-17" value="nối api" style="html=1;verticalAlign=bottom;endArrow=block;rounded=0;" parent="1" edge="1">
          <mxGeometry y="5" width="80" relative="1" as="geometry">
            <mxPoint x="-720" y="1544.62" as="sourcePoint" />
            <mxPoint x="-640" y="1544.62" as="targetPoint" />
            <mxPoint as="offset" />
          </mxGeometry>
        </mxCell>
        <mxCell id="5y8kFZeuz5u2EM3Kr_l1-18" value="authenticate, authorize, check, api" style="html=1;" parent="1" vertex="1">
          <mxGeometry x="-880" y="1570" width="210" height="50" as="geometry" />
        </mxCell>
        <mxCell id="SKqaYKTq5XklxY5YzmF5-1" value="&lt;b&gt;&lt;font style=&quot;font-size: 20px;&quot;&gt;FrontEnd&lt;/font&gt;&lt;/b&gt;" style="rounded=0;whiteSpace=wrap;html=1;" parent="1" vertex="1">
          <mxGeometry x="1600" y="-180" width="220" height="60" as="geometry" />
        </mxCell>
        <mxCell id="SKqaYKTq5XklxY5YzmF5-3" value="&lt;font style=&quot;font-size: 15px;&quot;&gt;Admin&lt;br&gt;(trang chủ)&lt;br&gt;&lt;/font&gt;" style="shape=step;perimeter=stepPerimeter;whiteSpace=wrap;html=1;fixedSize=1;fontSize=20;" parent="1" vertex="1">
          <mxGeometry x="1140" y="625" width="170" height="80" as="geometry" />
        </mxCell>
        <mxCell id="SKqaYKTq5XklxY5YzmF5-18" value="&lt;span style=&quot;font-size: 15px;&quot;&gt;Login&lt;/span&gt;" style="shape=step;perimeter=stepPerimeter;whiteSpace=wrap;html=1;fixedSize=1;fontSize=20;" parent="1" vertex="1">
          <mxGeometry x="1190" y="90" width="120" height="80" as="geometry" />
        </mxCell>
        <mxCell id="SKqaYKTq5XklxY5YzmF5-19" value="" style="swimlane;startSize=0;fontSize=15;" parent="1" vertex="1">
          <mxGeometry x="1340" y="3090" width="720" height="380" as="geometry" />
        </mxCell>
        <mxCell id="SKqaYKTq5XklxY5YzmF5-22" value="Email address" style="fillColor=none;strokeColor=none;align=left;fontSize=14;" parent="SKqaYKTq5XklxY5YzmF5-19" vertex="1">
          <mxGeometry width="260" height="40" relative="1" as="geometry">
            <mxPoint x="1370" y="20" as="offset" />
          </mxGeometry>
        </mxCell>
        <mxCell id="SKqaYKTq5XklxY5YzmF5-23" value="" style="html=1;shadow=0;dashed=0;shape=mxgraph.bootstrap.rrect;rSize=5;fillColor=none;strokeColor=#999999;align=left;spacing=15;fontSize=14;fontColor=#6C767D;" parent="SKqaYKTq5XklxY5YzmF5-19" vertex="1">
          <mxGeometry width="800" height="30" relative="1" as="geometry">
            <mxPoint x="1370" y="60" as="offset" />
          </mxGeometry>
        </mxCell>
        <mxCell id="SKqaYKTq5XklxY5YzmF5-24" value="We&#39;ll never share your email with anyone else." style="fillColor=none;strokeColor=none;align=left;spacing=2;fontSize=12;fontColor=#999999;" parent="SKqaYKTq5XklxY5YzmF5-19" vertex="1">
          <mxGeometry width="260" height="30" relative="1" as="geometry">
            <mxPoint x="1370" y="90" as="offset" />
          </mxGeometry>
        </mxCell>
        <mxCell id="SKqaYKTq5XklxY5YzmF5-25" value="Password" style="fillColor=none;strokeColor=none;align=left;fontSize=14;" parent="SKqaYKTq5XklxY5YzmF5-19" vertex="1">
          <mxGeometry width="260" height="40" relative="1" as="geometry">
            <mxPoint x="1370" y="120" as="offset" />
          </mxGeometry>
        </mxCell>
        <mxCell id="SKqaYKTq5XklxY5YzmF5-26" value="" style="html=1;shadow=0;dashed=0;shape=mxgraph.bootstrap.rrect;rSize=5;fillColor=none;strokeColor=#999999;align=left;spacing=15;fontSize=14;fontColor=#6C767D;" parent="SKqaYKTq5XklxY5YzmF5-19" vertex="1">
          <mxGeometry width="800" height="30" relative="1" as="geometry">
            <mxPoint x="1370" y="160" as="offset" />
          </mxGeometry>
        </mxCell>
        <mxCell id="SKqaYKTq5XklxY5YzmF5-27" value="Check me out" style="html=1;shadow=0;dashed=0;shape=mxgraph.bootstrap.rrect;rSize=2;fillColor=#EDEDED;strokeColor=#999999;align=left;fontSize=14;fontColor=#000000;labelPosition=right;verticalLabelPosition=middle;verticalAlign=middle;spacingLeft=5;spacingTop=-2;gradientColor=#DEDEDE;" parent="SKqaYKTq5XklxY5YzmF5-19" vertex="1">
          <mxGeometry width="10" height="10" relative="1" as="geometry">
            <mxPoint x="1370" y="210" as="offset" />
          </mxGeometry>
        </mxCell>
        <mxCell id="SKqaYKTq5XklxY5YzmF5-28" value="Sign in" style="html=1;shadow=0;dashed=0;shape=mxgraph.bootstrap.rrect;rSize=5;fillColor=#0085FC;strokeColor=none;align=center;fontSize=14;fontColor=#FFFFFF;" parent="SKqaYKTq5XklxY5YzmF5-19" vertex="1">
          <mxGeometry width="70" height="40" relative="1" as="geometry">
            <mxPoint x="1370" y="240" as="offset" />
          </mxGeometry>
        </mxCell>
        <mxCell id="SKqaYKTq5XklxY5YzmF5-21" value="" style="swimlane;startSize=0;fontSize=15;" parent="1" vertex="1">
          <mxGeometry x="1340" y="485" width="720" height="360" as="geometry" />
        </mxCell>
        <mxCell id="SKqaYKTq5XklxY5YzmF5-58" value="Trang chủ" style="html=1;shadow=0;dashed=0;fillColor=#E3F3FD;strokeColor=none;fontSize=16;fontColor=#161819;align=left;spacing=15;" parent="SKqaYKTq5XklxY5YzmF5-21" vertex="1">
          <mxGeometry width="720" height="50" as="geometry" />
        </mxCell>
        <mxCell id="SKqaYKTq5XklxY5YzmF5-59" value="Quản lý sách" style="fillColor=none;strokeColor=none;fontSize=14;fontColor=#161819;align=center;" parent="SKqaYKTq5XklxY5YzmF5-58" vertex="1">
          <mxGeometry width="100" height="50" relative="1" as="geometry">
            <mxPoint x="110" as="offset" />
          </mxGeometry>
        </mxCell>
        <mxCell id="SKqaYKTq5XklxY5YzmF5-53" value="" style="verticalLabelPosition=bottom;shadow=0;dashed=0;align=center;html=1;verticalAlign=top;strokeWidth=1;shape=mxgraph.mockup.containers.userMale;strokeColor=#666666;strokeColor2=#008cff;fontSize=15;" parent="SKqaYKTq5XklxY5YzmF5-58" vertex="1">
          <mxGeometry x="670" y="12.5" width="30" height="25" as="geometry" />
        </mxCell>
        <mxCell id="SKqaYKTq5XklxY5YzmF5-89" value="Quản lý chỗ ngồi" style="fillColor=none;strokeColor=none;fontSize=14;fontColor=#161819;align=center;" parent="SKqaYKTq5XklxY5YzmF5-58" vertex="1">
          <mxGeometry x="230" width="100" height="50" as="geometry" />
        </mxCell>
        <mxCell id="SKqaYKTq5XklxY5YzmF5-90" value="Quản lý người dùng" style="fillColor=none;strokeColor=none;fontSize=14;fontColor=#161819;align=center;" parent="SKqaYKTq5XklxY5YzmF5-58" vertex="1">
          <mxGeometry x="360" width="100" height="50" as="geometry" />
        </mxCell>
        <mxCell id="SKqaYKTq5XklxY5YzmF5-92" value="" style="html=1;shadow=0;dashed=0;shape=mxgraph.bootstrap.rrect;rSize=5;strokeColor=none;html=1;whiteSpace=wrap;fillColor=#6C767D;fontColor=#ffffff;sketch=0;fontSize=15;" parent="SKqaYKTq5XklxY5YzmF5-21" vertex="1">
          <mxGeometry x="630" y="45" width="90" height="95" as="geometry" />
        </mxCell>
        <mxCell id="SKqaYKTq5XklxY5YzmF5-93" value="&lt;font style=&quot;font-size: 10px;&quot;&gt;Thông tin cá nhân&lt;/font&gt;" style="strokeColor=inherit;fillColor=inherit;gradientColor=inherit;fontColor=inherit;html=1;shadow=0;dashed=0;shape=mxgraph.bootstrap.topButton;rSize=5;perimeter=none;whiteSpace=wrap;resizeWidth=1;sketch=0;fontSize=15;" parent="SKqaYKTq5XklxY5YzmF5-92" vertex="1">
          <mxGeometry width="90" height="30" relative="1" as="geometry" />
        </mxCell>
        <mxCell id="SKqaYKTq5XklxY5YzmF5-94" value="&lt;font style=&quot;font-size: 10px;&quot;&gt;Đăng ký admin&lt;/font&gt;" style="strokeColor=inherit;fillColor=inherit;gradientColor=inherit;fontColor=inherit;html=1;shadow=0;dashed=0;perimeter=none;whiteSpace=wrap;resizeWidth=1;sketch=0;fontSize=15;" parent="SKqaYKTq5XklxY5YzmF5-92" vertex="1">
          <mxGeometry width="90" height="30" relative="1" as="geometry">
            <mxPoint y="30" as="offset" />
          </mxGeometry>
        </mxCell>
        <mxCell id="SKqaYKTq5XklxY5YzmF5-95" value="&lt;font style=&quot;font-size: 10px;&quot;&gt;Đăng xuất&lt;/font&gt;" style="strokeColor=inherit;fillColor=inherit;gradientColor=inherit;fontColor=inherit;html=1;shadow=0;dashed=0;perimeter=none;whiteSpace=wrap;resizeWidth=1;sketch=0;fontSize=15;" parent="SKqaYKTq5XklxY5YzmF5-92" vertex="1">
          <mxGeometry width="90" height="30" relative="1" as="geometry">
            <mxPoint y="60" as="offset" />
          </mxGeometry>
        </mxCell>
        <mxCell id="SKqaYKTq5XklxY5YzmF5-226" value="" style="shape=waypoint;sketch=0;fillStyle=solid;size=6;pointerEvents=1;points=[];fillColor=none;resizable=0;rotatable=0;perimeter=centerPerimeter;snapToPoint=1;fontSize=13;" parent="SKqaYKTq5XklxY5YzmF5-21" vertex="1">
          <mxGeometry x="190" y="175" width="40" height="40" as="geometry" />
        </mxCell>
        <mxCell id="SKqaYKTq5XklxY5YzmF5-260" value="" style="shape=waypoint;sketch=0;fillStyle=solid;size=6;pointerEvents=1;points=[];fillColor=none;resizable=0;rotatable=0;perimeter=centerPerimeter;snapToPoint=1;fontSize=13;" parent="SKqaYKTq5XklxY5YzmF5-21" vertex="1">
          <mxGeometry x="210" y="175" width="40" height="40" as="geometry" />
        </mxCell>
        <mxCell id="SKqaYKTq5XklxY5YzmF5-261" value="" style="shape=waypoint;sketch=0;fillStyle=solid;size=6;pointerEvents=1;points=[];fillColor=none;resizable=0;rotatable=0;perimeter=centerPerimeter;snapToPoint=1;fontSize=13;" parent="SKqaYKTq5XklxY5YzmF5-21" vertex="1">
          <mxGeometry x="230" y="175" width="40" height="40" as="geometry" />
        </mxCell>
        <mxCell id="SKqaYKTq5XklxY5YzmF5-262" value="" style="shape=waypoint;sketch=0;fillStyle=solid;size=6;pointerEvents=1;points=[];fillColor=none;resizable=0;rotatable=0;perimeter=centerPerimeter;snapToPoint=1;fontSize=13;" parent="SKqaYKTq5XklxY5YzmF5-21" vertex="1">
          <mxGeometry x="250" y="175" width="40" height="40" as="geometry" />
        </mxCell>
        <mxCell id="SKqaYKTq5XklxY5YzmF5-263" value="" style="shape=waypoint;sketch=0;fillStyle=solid;size=6;pointerEvents=1;points=[];fillColor=none;resizable=0;rotatable=0;perimeter=centerPerimeter;snapToPoint=1;fontSize=13;" parent="SKqaYKTq5XklxY5YzmF5-21" vertex="1">
          <mxGeometry x="270" y="175" width="40" height="40" as="geometry" />
        </mxCell>
        <mxCell id="SKqaYKTq5XklxY5YzmF5-264" value="" style="shape=waypoint;sketch=0;fillStyle=solid;size=6;pointerEvents=1;points=[];fillColor=none;resizable=0;rotatable=0;perimeter=centerPerimeter;snapToPoint=1;fontSize=13;" parent="SKqaYKTq5XklxY5YzmF5-21" vertex="1">
          <mxGeometry x="290" y="175" width="40" height="40" as="geometry" />
        </mxCell>
        <mxCell id="SKqaYKTq5XklxY5YzmF5-91" value="thông tin người dùng" style="shape=callout;whiteSpace=wrap;html=1;perimeter=calloutPerimeter;fontSize=15;" parent="1" vertex="1">
          <mxGeometry x="1960" y="410" width="120" height="80" as="geometry" />
        </mxCell>
        <mxCell id="SKqaYKTq5XklxY5YzmF5-111" value="" style="swimlane;startSize=0;fontSize=15;" parent="1" vertex="1">
          <mxGeometry x="1340" y="-20" width="720" height="360" as="geometry" />
        </mxCell>
        <mxCell id="SKqaYKTq5XklxY5YzmF5-112" value="Email address" style="fillColor=none;strokeColor=none;align=left;fontSize=14;" parent="SKqaYKTq5XklxY5YzmF5-111" vertex="1">
          <mxGeometry width="260" height="40" relative="1" as="geometry">
            <mxPoint x="1370" y="20" as="offset" />
          </mxGeometry>
        </mxCell>
        <mxCell id="SKqaYKTq5XklxY5YzmF5-113" value="" style="html=1;shadow=0;dashed=0;shape=mxgraph.bootstrap.rrect;rSize=5;fillColor=none;strokeColor=#999999;align=left;spacing=15;fontSize=14;fontColor=#6C767D;" parent="SKqaYKTq5XklxY5YzmF5-111" vertex="1">
          <mxGeometry width="800" height="30" relative="1" as="geometry">
            <mxPoint x="1370" y="60" as="offset" />
          </mxGeometry>
        </mxCell>
        <mxCell id="SKqaYKTq5XklxY5YzmF5-114" value="We&#39;ll never share your email with anyone else." style="fillColor=none;strokeColor=none;align=left;spacing=2;fontSize=12;fontColor=#999999;" parent="SKqaYKTq5XklxY5YzmF5-111" vertex="1">
          <mxGeometry width="260" height="30" relative="1" as="geometry">
            <mxPoint x="1370" y="90" as="offset" />
          </mxGeometry>
        </mxCell>
        <mxCell id="SKqaYKTq5XklxY5YzmF5-115" value="Password" style="fillColor=none;strokeColor=none;align=left;fontSize=14;" parent="SKqaYKTq5XklxY5YzmF5-111" vertex="1">
          <mxGeometry width="260" height="40" relative="1" as="geometry">
            <mxPoint x="1370" y="120" as="offset" />
          </mxGeometry>
        </mxCell>
        <mxCell id="SKqaYKTq5XklxY5YzmF5-116" value="" style="html=1;shadow=0;dashed=0;shape=mxgraph.bootstrap.rrect;rSize=5;fillColor=none;strokeColor=#999999;align=left;spacing=15;fontSize=14;fontColor=#6C767D;" parent="SKqaYKTq5XklxY5YzmF5-111" vertex="1">
          <mxGeometry width="800" height="30" relative="1" as="geometry">
            <mxPoint x="1370" y="160" as="offset" />
          </mxGeometry>
        </mxCell>
        <mxCell id="SKqaYKTq5XklxY5YzmF5-117" value="Check me out" style="html=1;shadow=0;dashed=0;shape=mxgraph.bootstrap.rrect;rSize=2;fillColor=#EDEDED;strokeColor=#999999;align=left;fontSize=14;fontColor=#000000;labelPosition=right;verticalLabelPosition=middle;verticalAlign=middle;spacingLeft=5;spacingTop=-2;gradientColor=#DEDEDE;" parent="SKqaYKTq5XklxY5YzmF5-111" vertex="1">
          <mxGeometry width="10" height="10" relative="1" as="geometry">
            <mxPoint x="1370" y="210" as="offset" />
          </mxGeometry>
        </mxCell>
        <mxCell id="SKqaYKTq5XklxY5YzmF5-118" value="Sign in" style="html=1;shadow=0;dashed=0;shape=mxgraph.bootstrap.rrect;rSize=5;fillColor=#0085FC;strokeColor=none;align=center;fontSize=14;fontColor=#FFFFFF;" parent="SKqaYKTq5XklxY5YzmF5-111" vertex="1">
          <mxGeometry width="70" height="40" relative="1" as="geometry">
            <mxPoint x="1370" y="240" as="offset" />
          </mxGeometry>
        </mxCell>
        <mxCell id="SKqaYKTq5XklxY5YzmF5-119" value="" style="html=1;shadow=0;dashed=0;shape=mxgraph.bootstrap.rrect;rSize=5;fillColor=#ffffff;strokeColor=#999999;fontSize=15;" parent="SKqaYKTq5XklxY5YzmF5-111" vertex="1">
          <mxGeometry x="460" y="30" width="220" height="300" as="geometry" />
        </mxCell>
        <mxCell id="SKqaYKTq5XklxY5YzmF5-120" value="User" style="fillColor=none;strokeColor=none;align=left;spacing=20;fontSize=14;" parent="SKqaYKTq5XklxY5YzmF5-119" vertex="1">
          <mxGeometry width="220" height="40" relative="1" as="geometry">
            <mxPoint y="10" as="offset" />
          </mxGeometry>
        </mxCell>
        <mxCell id="SKqaYKTq5XklxY5YzmF5-121" value="mssv/msadmin" style="html=1;shadow=0;dashed=0;shape=mxgraph.bootstrap.rrect;rSize=5;fillColor=none;strokeColor=#999999;align=left;spacing=15;fontSize=14;fontColor=#6C767D;" parent="SKqaYKTq5XklxY5YzmF5-119" vertex="1">
          <mxGeometry width="180" height="30" relative="1" as="geometry">
            <mxPoint x="20" y="50" as="offset" />
          </mxGeometry>
        </mxCell>
        <mxCell id="SKqaYKTq5XklxY5YzmF5-122" value="Password" style="fillColor=none;strokeColor=none;align=left;spacing=20;fontSize=14;" parent="SKqaYKTq5XklxY5YzmF5-119" vertex="1">
          <mxGeometry width="220" height="40" relative="1" as="geometry">
            <mxPoint y="90" as="offset" />
          </mxGeometry>
        </mxCell>
        <mxCell id="SKqaYKTq5XklxY5YzmF5-123" value="Password" style="html=1;shadow=0;dashed=0;shape=mxgraph.bootstrap.rrect;rSize=5;fillColor=none;strokeColor=#999999;align=left;spacing=15;fontSize=14;fontColor=#6C767D;" parent="SKqaYKTq5XklxY5YzmF5-119" vertex="1">
          <mxGeometry width="180" height="30" relative="1" as="geometry">
            <mxPoint x="20" y="130" as="offset" />
          </mxGeometry>
        </mxCell>
        <mxCell id="SKqaYKTq5XklxY5YzmF5-124" value="Sign in" style="html=1;shadow=0;dashed=0;shape=mxgraph.bootstrap.rrect;rSize=5;fillColor=#0085FC;strokeColor=none;align=center;fontSize=14;fontColor=#FFFFFF;" parent="SKqaYKTq5XklxY5YzmF5-119" vertex="1">
          <mxGeometry width="70" height="40" relative="1" as="geometry">
            <mxPoint x="75" y="200" as="offset" />
          </mxGeometry>
        </mxCell>
        <mxCell id="SKqaYKTq5XklxY5YzmF5-125" value="&lt;font color=&quot;#d90000&quot; style=&quot;font-size: 11px;&quot;&gt;Forgot password?&lt;/font&gt;" style="html=1;fillColor=none;strokeColor=none;align=left;spacing=20;fontSize=14;" parent="SKqaYKTq5XklxY5YzmF5-119" vertex="1">
          <mxGeometry width="170" height="30" relative="1" as="geometry">
            <mxPoint x="10" y="160" as="offset" />
          </mxGeometry>
        </mxCell>
        <mxCell id="SKqaYKTq5XklxY5YzmF5-126" style="edgeStyle=orthogonalEdgeStyle;rounded=0;orthogonalLoop=1;jettySize=auto;html=1;exitX=0.5;exitY=1;exitDx=0;exitDy=0;fontSize=15;" parent="SKqaYKTq5XklxY5YzmF5-119" source="SKqaYKTq5XklxY5YzmF5-125" target="SKqaYKTq5XklxY5YzmF5-125" edge="1">
          <mxGeometry relative="1" as="geometry" />
        </mxCell>
        <mxCell id="SKqaYKTq5XklxY5YzmF5-127" value="" style="strokeColor=#999999;verticalLabelPosition=bottom;shadow=0;dashed=0;verticalAlign=top;strokeWidth=2;html=1;shape=mxgraph.mockup.misc.printIcon;fontSize=15;" parent="SKqaYKTq5XklxY5YzmF5-111" vertex="1">
          <mxGeometry x="100" y="80" width="180" height="170" as="geometry" />
        </mxCell>
        <mxCell id="SKqaYKTq5XklxY5YzmF5-128" value="" style="swimlane;startSize=0;fontSize=15;" parent="1" vertex="1">
          <mxGeometry x="1340" y="960" width="720" height="440" as="geometry" />
        </mxCell>
        <mxCell id="SKqaYKTq5XklxY5YzmF5-129" value="Email address" style="fillColor=none;strokeColor=none;align=left;fontSize=14;" parent="SKqaYKTq5XklxY5YzmF5-128" vertex="1">
          <mxGeometry width="260" height="40" relative="1" as="geometry">
            <mxPoint x="1370" y="20" as="offset" />
          </mxGeometry>
        </mxCell>
        <mxCell id="SKqaYKTq5XklxY5YzmF5-130" value="" style="html=1;shadow=0;dashed=0;shape=mxgraph.bootstrap.rrect;rSize=5;fillColor=none;strokeColor=#999999;align=left;spacing=15;fontSize=14;fontColor=#6C767D;" parent="SKqaYKTq5XklxY5YzmF5-128" vertex="1">
          <mxGeometry width="800" height="30" relative="1" as="geometry">
            <mxPoint x="1370" y="60" as="offset" />
          </mxGeometry>
        </mxCell>
        <mxCell id="SKqaYKTq5XklxY5YzmF5-131" value="We&#39;ll never share your email with anyone else." style="fillColor=none;strokeColor=none;align=left;spacing=2;fontSize=12;fontColor=#999999;" parent="SKqaYKTq5XklxY5YzmF5-128" vertex="1">
          <mxGeometry width="260" height="30" relative="1" as="geometry">
            <mxPoint x="1370" y="90" as="offset" />
          </mxGeometry>
        </mxCell>
        <mxCell id="SKqaYKTq5XklxY5YzmF5-132" value="Password" style="fillColor=none;strokeColor=none;align=left;fontSize=14;" parent="SKqaYKTq5XklxY5YzmF5-128" vertex="1">
          <mxGeometry width="260" height="40" relative="1" as="geometry">
            <mxPoint x="1370" y="120" as="offset" />
          </mxGeometry>
        </mxCell>
        <mxCell id="SKqaYKTq5XklxY5YzmF5-133" value="" style="html=1;shadow=0;dashed=0;shape=mxgraph.bootstrap.rrect;rSize=5;fillColor=none;strokeColor=#999999;align=left;spacing=15;fontSize=14;fontColor=#6C767D;" parent="SKqaYKTq5XklxY5YzmF5-128" vertex="1">
          <mxGeometry width="800" height="30" relative="1" as="geometry">
            <mxPoint x="1370" y="160" as="offset" />
          </mxGeometry>
        </mxCell>
        <mxCell id="SKqaYKTq5XklxY5YzmF5-134" value="Check me out" style="html=1;shadow=0;dashed=0;shape=mxgraph.bootstrap.rrect;rSize=2;fillColor=#EDEDED;strokeColor=#999999;align=left;fontSize=14;fontColor=#000000;labelPosition=right;verticalLabelPosition=middle;verticalAlign=middle;spacingLeft=5;spacingTop=-2;gradientColor=#DEDEDE;" parent="SKqaYKTq5XklxY5YzmF5-128" vertex="1">
          <mxGeometry width="10" height="10" relative="1" as="geometry">
            <mxPoint x="1370" y="210" as="offset" />
          </mxGeometry>
        </mxCell>
        <mxCell id="SKqaYKTq5XklxY5YzmF5-135" value="Sign in" style="html=1;shadow=0;dashed=0;shape=mxgraph.bootstrap.rrect;rSize=5;fillColor=#0085FC;strokeColor=none;align=center;fontSize=14;fontColor=#FFFFFF;" parent="SKqaYKTq5XklxY5YzmF5-128" vertex="1">
          <mxGeometry width="70" height="40" relative="1" as="geometry">
            <mxPoint x="1370" y="240" as="offset" />
          </mxGeometry>
        </mxCell>
        <mxCell id="SKqaYKTq5XklxY5YzmF5-138" value="Trang chủ" style="html=1;shadow=0;dashed=0;fillColor=#E3F3FD;strokeColor=none;fontSize=16;fontColor=#161819;align=left;spacing=15;" parent="SKqaYKTq5XklxY5YzmF5-128" vertex="1">
          <mxGeometry width="720" height="50" as="geometry" />
        </mxCell>
        <mxCell id="SKqaYKTq5XklxY5YzmF5-139" value="Quản lý sách" style="fillColor=none;strokeColor=none;fontSize=14;fontColor=#161819;align=center;" parent="SKqaYKTq5XklxY5YzmF5-138" vertex="1">
          <mxGeometry width="100" height="50" relative="1" as="geometry">
            <mxPoint x="110" as="offset" />
          </mxGeometry>
        </mxCell>
        <mxCell id="SKqaYKTq5XklxY5YzmF5-140" value="" style="verticalLabelPosition=bottom;shadow=0;dashed=0;align=center;html=1;verticalAlign=top;strokeWidth=1;shape=mxgraph.mockup.containers.userMale;strokeColor=#666666;strokeColor2=#008cff;fontSize=15;" parent="SKqaYKTq5XklxY5YzmF5-138" vertex="1">
          <mxGeometry x="670" y="12.5" width="30" height="25" as="geometry" />
        </mxCell>
        <mxCell id="SKqaYKTq5XklxY5YzmF5-141" value="Quản lý chỗ ngồi" style="fillColor=none;strokeColor=none;fontSize=14;fontColor=#161819;align=center;" parent="SKqaYKTq5XklxY5YzmF5-138" vertex="1">
          <mxGeometry x="230" width="100" height="50" as="geometry" />
        </mxCell>
        <mxCell id="SKqaYKTq5XklxY5YzmF5-142" value="Quản lý người dùng" style="fillColor=none;strokeColor=none;fontSize=14;fontColor=#161819;align=center;" parent="SKqaYKTq5XklxY5YzmF5-138" vertex="1">
          <mxGeometry x="360" width="100" height="50" as="geometry" />
        </mxCell>
        <mxCell id="SKqaYKTq5XklxY5YzmF5-137" value="&lt;font style=&quot;font-size: 15px;&quot;&gt;Admin&lt;br&gt;(quản lý sách)&lt;br&gt;Thêm sách&lt;br&gt;&lt;/font&gt;" style="shape=step;perimeter=stepPerimeter;whiteSpace=wrap;html=1;fixedSize=1;fontSize=20;" parent="1" vertex="1">
          <mxGeometry x="1150" y="1700" width="170" height="80" as="geometry" />
        </mxCell>
        <mxCell id="SKqaYKTq5XklxY5YzmF5-143" value="" style="strokeWidth=1;shadow=0;dashed=0;align=center;html=1;shape=mxgraph.mockup.containers.marginRect2;rectMarginTop=32;strokeColor=#666666;gradientColor=none;fontSize=10;" parent="1" vertex="1">
          <mxGeometry x="1360" y="1020" width="680" height="370" as="geometry" />
        </mxCell>
        <mxCell id="SKqaYKTq5XklxY5YzmF5-147" value="" style="strokeWidth=1;shadow=0;dashed=0;align=center;html=1;shape=mxgraph.mockup.containers.topButton;rSize=5;strokeColor=#008cff;fillColor=#008cff;gradientColor=none;resizeWidth=1;movable=0;deletable=1;fontSize=10;" parent="SKqaYKTq5XklxY5YzmF5-143" vertex="1">
          <mxGeometry width="669.5384615384615" height="7" relative="1" as="geometry">
            <mxPoint y="25" as="offset" />
          </mxGeometry>
        </mxCell>
        <mxCell id="SKqaYKTq5XklxY5YzmF5-145" value="&lt;font style=&quot;font-size: 13px;&quot;&gt;Thêm sách&lt;/font&gt;" style="strokeWidth=1;shadow=0;dashed=0;align=center;html=1;shape=mxgraph.mockup.containers.rrect;rSize=0;fontSize=17;fontColor=#ffffff;strokeColor=#008cff;fillColor=#008cff;" parent="SKqaYKTq5XklxY5YzmF5-143" vertex="1">
          <mxGeometry width="80" height="25" relative="1" as="geometry">
            <mxPoint x="10" as="offset" />
          </mxGeometry>
        </mxCell>
        <mxCell id="SKqaYKTq5XklxY5YzmF5-201" value="&lt;p style=&quot;line-height: 120%;&quot;&gt;nhập tên sách (bắt buộc nhập)&lt;/p&gt;" style="html=1;shadow=0;dashed=0;shape=mxgraph.bootstrap.rrect;rSize=5;fillColor=none;strokeColor=#999999;align=left;spacing=15;fontSize=14;fontColor=#6C767D;" parent="SKqaYKTq5XklxY5YzmF5-143" vertex="1">
          <mxGeometry x="20" y="43.52941176470588" width="408" height="32.64705882352941" as="geometry" />
        </mxCell>
        <mxCell id="SKqaYKTq5XklxY5YzmF5-205" value="&lt;font color=&quot;#6c767d&quot;&gt;&lt;b&gt;&lt;font style=&quot;&quot;&gt;&lt;font style=&quot;font-size: 13px;&quot;&gt;Tên sách&lt;/font&gt;&lt;br style=&quot;font-size: 10px&quot;&gt;&lt;font style=&quot;font-size: 13px;&quot;&gt;Tác giả&lt;br&gt;&lt;/font&gt;&lt;/font&gt;&lt;/b&gt;&lt;/font&gt;&lt;br style=&quot;font-size: 14px&quot;&gt;&lt;font style=&quot;font-size: 11px;&quot;&gt;Người đang mượn: (có thì show ra không thì để chống)&lt;/font&gt;" style="html=1;shadow=0;dashed=0;shape=mxgraph.bootstrap.rrect;rSize=5;strokeColor=#DFDFDF;html=1;whiteSpace=wrap;fillColor=#ffffff;fontColor=#000000;verticalAlign=top;align=left;spacing=20;fontSize=14;" parent="SKqaYKTq5XklxY5YzmF5-143" vertex="1">
          <mxGeometry x="20" y="92.5" width="209.23" height="127.5" as="geometry" />
        </mxCell>
        <mxCell id="SKqaYKTq5XklxY5YzmF5-206" value="&lt;font style=&quot;font-size: 12px;&quot;&gt;Xóa sách&lt;/font&gt;" style="html=1;shadow=0;dashed=0;shape=mxgraph.bootstrap.rrect;rSize=5;perimeter=none;whiteSpace=wrap;fillColor=none;strokeColor=none;fontColor=#0085FC;resizeWidth=1;fontSize=14;align=center;" parent="SKqaYKTq5XklxY5YzmF5-205" vertex="1">
          <mxGeometry y="1" width="66.95359999999998" height="40" relative="1" as="geometry">
            <mxPoint x="130" y="-40" as="offset" />
          </mxGeometry>
        </mxCell>
        <mxCell id="SKqaYKTq5XklxY5YzmF5-148" value="&lt;font style=&quot;font-size: 13px;&quot;&gt;Xóa sách&lt;/font&gt;" style="strokeWidth=1;shadow=0;dashed=0;align=center;html=1;shape=mxgraph.mockup.containers.rrect;rSize=0;fontSize=17;fontColor=#ffffff;strokeColor=#008cff;fillColor=#008cff;" parent="SKqaYKTq5XklxY5YzmF5-143" vertex="1">
          <mxGeometry x="100" width="80" height="30" as="geometry" />
        </mxCell>
        <mxCell id="SKqaYKTq5XklxY5YzmF5-149" value="&lt;span style=&quot;font-size: 13px;&quot;&gt;Chỉnh sửa&lt;/span&gt;" style="strokeWidth=1;shadow=0;dashed=0;align=center;html=1;shape=mxgraph.mockup.containers.rrect;rSize=0;fontSize=17;fontColor=#ffffff;strokeColor=#008cff;fillColor=#008cff;" parent="SKqaYKTq5XklxY5YzmF5-143" vertex="1">
          <mxGeometry x="190" width="80" height="30" as="geometry" />
        </mxCell>
        <mxCell id="SKqaYKTq5XklxY5YzmF5-275" value="&lt;font color=&quot;#6c767d&quot;&gt;&lt;b&gt;&lt;font style=&quot;&quot;&gt;&lt;font style=&quot;font-size: 13px;&quot;&gt;Tên sách&lt;/font&gt;&lt;br style=&quot;font-size: 10px&quot;&gt;&lt;font style=&quot;font-size: 13px;&quot;&gt;Tác giả&lt;br&gt;&lt;/font&gt;&lt;/font&gt;&lt;/b&gt;&lt;/font&gt;&lt;br style=&quot;font-size: 14px&quot;&gt;&lt;font style=&quot;font-size: 11px;&quot;&gt;Người đang mượn: (có thì show ra không thì để chống)&lt;/font&gt;" style="html=1;shadow=0;dashed=0;shape=mxgraph.bootstrap.rrect;rSize=5;strokeColor=#DFDFDF;html=1;whiteSpace=wrap;fillColor=#ffffff;fontColor=#000000;verticalAlign=top;align=left;spacing=20;fontSize=14;" parent="SKqaYKTq5XklxY5YzmF5-143" vertex="1">
          <mxGeometry x="240" y="92.5" width="209.23" height="127.5" as="geometry" />
        </mxCell>
        <mxCell id="SKqaYKTq5XklxY5YzmF5-276" value="&lt;font style=&quot;font-size: 12px;&quot;&gt;Xóa sách&lt;/font&gt;" style="html=1;shadow=0;dashed=0;shape=mxgraph.bootstrap.rrect;rSize=5;perimeter=none;whiteSpace=wrap;fillColor=none;strokeColor=none;fontColor=#0085FC;resizeWidth=1;fontSize=14;align=center;" parent="SKqaYKTq5XklxY5YzmF5-275" vertex="1">
          <mxGeometry y="1" width="66.95359999999998" height="40" relative="1" as="geometry">
            <mxPoint x="130" y="-40" as="offset" />
          </mxGeometry>
        </mxCell>
        <mxCell id="SKqaYKTq5XklxY5YzmF5-277" value="&lt;font color=&quot;#6c767d&quot;&gt;&lt;b&gt;&lt;font style=&quot;&quot;&gt;&lt;font style=&quot;font-size: 13px;&quot;&gt;Tên sách&lt;/font&gt;&lt;br style=&quot;font-size: 10px&quot;&gt;&lt;font style=&quot;font-size: 13px;&quot;&gt;Tác giả&lt;br&gt;&lt;/font&gt;&lt;/font&gt;&lt;/b&gt;&lt;/font&gt;&lt;br style=&quot;font-size: 14px&quot;&gt;&lt;font style=&quot;font-size: 11px;&quot;&gt;Người đang mượn: (có thì show ra không thì để chống)&lt;/font&gt;" style="html=1;shadow=0;dashed=0;shape=mxgraph.bootstrap.rrect;rSize=5;strokeColor=#DFDFDF;html=1;whiteSpace=wrap;fillColor=#ffffff;fontColor=#000000;verticalAlign=top;align=left;spacing=20;fontSize=14;" parent="SKqaYKTq5XklxY5YzmF5-143" vertex="1">
          <mxGeometry x="460" y="92.5" width="209.23" height="127.5" as="geometry" />
        </mxCell>
        <mxCell id="SKqaYKTq5XklxY5YzmF5-278" value="&lt;font style=&quot;font-size: 12px;&quot;&gt;Xóa sách&lt;/font&gt;" style="html=1;shadow=0;dashed=0;shape=mxgraph.bootstrap.rrect;rSize=5;perimeter=none;whiteSpace=wrap;fillColor=none;strokeColor=none;fontColor=#0085FC;resizeWidth=1;fontSize=14;align=center;" parent="SKqaYKTq5XklxY5YzmF5-277" vertex="1">
          <mxGeometry y="1" width="66.95359999999998" height="40" relative="1" as="geometry">
            <mxPoint x="130" y="-40" as="offset" />
          </mxGeometry>
        </mxCell>
        <mxCell id="SKqaYKTq5XklxY5YzmF5-282" value="&lt;font color=&quot;#6c767d&quot;&gt;&lt;b&gt;&lt;font style=&quot;&quot;&gt;&lt;font style=&quot;font-size: 13px;&quot;&gt;Tên sách&lt;/font&gt;&lt;br style=&quot;font-size: 10px&quot;&gt;&lt;font style=&quot;font-size: 13px;&quot;&gt;Tác giả&lt;br&gt;&lt;/font&gt;&lt;/font&gt;&lt;/b&gt;&lt;/font&gt;&lt;br style=&quot;font-size: 14px&quot;&gt;&lt;font style=&quot;font-size: 11px;&quot;&gt;Người đang mượn: (có thì show ra không thì để chống)&lt;/font&gt;" style="html=1;shadow=0;dashed=0;shape=mxgraph.bootstrap.rrect;rSize=5;strokeColor=#DFDFDF;html=1;whiteSpace=wrap;fillColor=#ffffff;fontColor=#000000;verticalAlign=top;align=left;spacing=20;fontSize=14;" parent="SKqaYKTq5XklxY5YzmF5-143" vertex="1">
          <mxGeometry x="20" y="230" width="209.23" height="127.5" as="geometry" />
        </mxCell>
        <mxCell id="SKqaYKTq5XklxY5YzmF5-283" value="&lt;font style=&quot;font-size: 12px;&quot;&gt;Xóa sách&lt;/font&gt;" style="html=1;shadow=0;dashed=0;shape=mxgraph.bootstrap.rrect;rSize=5;perimeter=none;whiteSpace=wrap;fillColor=none;strokeColor=none;fontColor=#0085FC;resizeWidth=1;fontSize=14;align=center;" parent="SKqaYKTq5XklxY5YzmF5-282" vertex="1">
          <mxGeometry y="1" width="66.95359999999998" height="40" relative="1" as="geometry">
            <mxPoint x="130" y="-40" as="offset" />
          </mxGeometry>
        </mxCell>
        <mxCell id="SKqaYKTq5XklxY5YzmF5-284" value="&lt;font color=&quot;#6c767d&quot;&gt;&lt;b&gt;&lt;font style=&quot;&quot;&gt;&lt;font style=&quot;font-size: 13px;&quot;&gt;Tên sách&lt;/font&gt;&lt;br style=&quot;font-size: 10px&quot;&gt;&lt;font style=&quot;font-size: 13px;&quot;&gt;Tác giả&lt;br&gt;&lt;/font&gt;&lt;/font&gt;&lt;/b&gt;&lt;/font&gt;&lt;br style=&quot;font-size: 14px&quot;&gt;&lt;font style=&quot;font-size: 11px;&quot;&gt;Người đang mượn: (có thì show ra không thì để chống)&lt;/font&gt;" style="html=1;shadow=0;dashed=0;shape=mxgraph.bootstrap.rrect;rSize=5;strokeColor=#DFDFDF;html=1;whiteSpace=wrap;fillColor=#ffffff;fontColor=#000000;verticalAlign=top;align=left;spacing=20;fontSize=14;" parent="SKqaYKTq5XklxY5YzmF5-143" vertex="1">
          <mxGeometry x="240" y="230" width="209.23" height="127.5" as="geometry" />
        </mxCell>
        <mxCell id="SKqaYKTq5XklxY5YzmF5-285" value="&lt;font style=&quot;font-size: 12px;&quot;&gt;Xóa sách&lt;/font&gt;" style="html=1;shadow=0;dashed=0;shape=mxgraph.bootstrap.rrect;rSize=5;perimeter=none;whiteSpace=wrap;fillColor=none;strokeColor=none;fontColor=#0085FC;resizeWidth=1;fontSize=14;align=center;" parent="SKqaYKTq5XklxY5YzmF5-284" vertex="1">
          <mxGeometry y="1" width="66.95359999999998" height="40" relative="1" as="geometry">
            <mxPoint x="130" y="-40" as="offset" />
          </mxGeometry>
        </mxCell>
        <mxCell id="SKqaYKTq5XklxY5YzmF5-286" value="&lt;font color=&quot;#6c767d&quot;&gt;&lt;b&gt;&lt;font style=&quot;&quot;&gt;&lt;font style=&quot;font-size: 13px;&quot;&gt;Tên sách&lt;/font&gt;&lt;br style=&quot;font-size: 10px&quot;&gt;&lt;font style=&quot;font-size: 13px;&quot;&gt;Tác giả&lt;br&gt;&lt;/font&gt;&lt;/font&gt;&lt;/b&gt;&lt;/font&gt;&lt;br style=&quot;font-size: 14px&quot;&gt;&lt;font style=&quot;font-size: 11px;&quot;&gt;Người đang mượn: (có thì show ra không thì để chống)&lt;/font&gt;" style="html=1;shadow=0;dashed=0;shape=mxgraph.bootstrap.rrect;rSize=5;strokeColor=#DFDFDF;html=1;whiteSpace=wrap;fillColor=#ffffff;fontColor=#000000;verticalAlign=top;align=left;spacing=20;fontSize=14;" parent="SKqaYKTq5XklxY5YzmF5-143" vertex="1">
          <mxGeometry x="460" y="230" width="209.23" height="127.5" as="geometry" />
        </mxCell>
        <mxCell id="SKqaYKTq5XklxY5YzmF5-287" value="&lt;font style=&quot;font-size: 12px;&quot;&gt;Xóa sách&lt;/font&gt;" style="html=1;shadow=0;dashed=0;shape=mxgraph.bootstrap.rrect;rSize=5;perimeter=none;whiteSpace=wrap;fillColor=none;strokeColor=none;fontColor=#0085FC;resizeWidth=1;fontSize=14;align=center;" parent="SKqaYKTq5XklxY5YzmF5-286" vertex="1">
          <mxGeometry y="1" width="66.95359999999998" height="40" relative="1" as="geometry">
            <mxPoint x="130" y="-40" as="offset" />
          </mxGeometry>
        </mxCell>
        <mxCell id="SKqaYKTq5XklxY5YzmF5-212" value="&lt;font style=&quot;font-size: 15px;&quot;&gt;Admin&lt;br&gt;(quản lý sách)&lt;br&gt;Xóa sách&lt;br&gt;&lt;/font&gt;" style="shape=step;perimeter=stepPerimeter;whiteSpace=wrap;html=1;fixedSize=1;fontSize=20;" parent="1" vertex="1">
          <mxGeometry x="1150" y="1090" width="170" height="80" as="geometry" />
        </mxCell>
        <mxCell id="SKqaYKTq5XklxY5YzmF5-213" value="" style="swimlane;startSize=0;fontSize=15;" parent="1" vertex="1">
          <mxGeometry x="1340" y="1530" width="720" height="400" as="geometry" />
        </mxCell>
        <mxCell id="SKqaYKTq5XklxY5YzmF5-214" value="Email address" style="fillColor=none;strokeColor=none;align=left;fontSize=14;" parent="SKqaYKTq5XklxY5YzmF5-213" vertex="1">
          <mxGeometry width="260" height="40" relative="1" as="geometry">
            <mxPoint x="1370" y="20" as="offset" />
          </mxGeometry>
        </mxCell>
        <mxCell id="SKqaYKTq5XklxY5YzmF5-215" value="" style="html=1;shadow=0;dashed=0;shape=mxgraph.bootstrap.rrect;rSize=5;fillColor=none;strokeColor=#999999;align=left;spacing=15;fontSize=14;fontColor=#6C767D;" parent="SKqaYKTq5XklxY5YzmF5-213" vertex="1">
          <mxGeometry width="800" height="30" relative="1" as="geometry">
            <mxPoint x="1370" y="60" as="offset" />
          </mxGeometry>
        </mxCell>
        <mxCell id="SKqaYKTq5XklxY5YzmF5-216" value="We&#39;ll never share your email with anyone else." style="fillColor=none;strokeColor=none;align=left;spacing=2;fontSize=12;fontColor=#999999;" parent="SKqaYKTq5XklxY5YzmF5-213" vertex="1">
          <mxGeometry width="260" height="30" relative="1" as="geometry">
            <mxPoint x="1370" y="90" as="offset" />
          </mxGeometry>
        </mxCell>
        <mxCell id="SKqaYKTq5XklxY5YzmF5-217" value="Password" style="fillColor=none;strokeColor=none;align=left;fontSize=14;" parent="SKqaYKTq5XklxY5YzmF5-213" vertex="1">
          <mxGeometry width="260" height="40" relative="1" as="geometry">
            <mxPoint x="1370" y="120" as="offset" />
          </mxGeometry>
        </mxCell>
        <mxCell id="SKqaYKTq5XklxY5YzmF5-218" value="" style="html=1;shadow=0;dashed=0;shape=mxgraph.bootstrap.rrect;rSize=5;fillColor=none;strokeColor=#999999;align=left;spacing=15;fontSize=14;fontColor=#6C767D;" parent="SKqaYKTq5XklxY5YzmF5-213" vertex="1">
          <mxGeometry width="800" height="30" relative="1" as="geometry">
            <mxPoint x="1370" y="160" as="offset" />
          </mxGeometry>
        </mxCell>
        <mxCell id="SKqaYKTq5XklxY5YzmF5-219" value="Check me out" style="html=1;shadow=0;dashed=0;shape=mxgraph.bootstrap.rrect;rSize=2;fillColor=#EDEDED;strokeColor=#999999;align=left;fontSize=14;fontColor=#000000;labelPosition=right;verticalLabelPosition=middle;verticalAlign=middle;spacingLeft=5;spacingTop=-2;gradientColor=#DEDEDE;" parent="SKqaYKTq5XklxY5YzmF5-213" vertex="1">
          <mxGeometry width="10" height="10" relative="1" as="geometry">
            <mxPoint x="1370" y="210" as="offset" />
          </mxGeometry>
        </mxCell>
        <mxCell id="SKqaYKTq5XklxY5YzmF5-220" value="Sign in" style="html=1;shadow=0;dashed=0;shape=mxgraph.bootstrap.rrect;rSize=5;fillColor=#0085FC;strokeColor=none;align=center;fontSize=14;fontColor=#FFFFFF;" parent="SKqaYKTq5XklxY5YzmF5-213" vertex="1">
          <mxGeometry width="70" height="40" relative="1" as="geometry">
            <mxPoint x="1370" y="240" as="offset" />
          </mxGeometry>
        </mxCell>
        <mxCell id="SKqaYKTq5XklxY5YzmF5-221" value="Trang chủ" style="html=1;shadow=0;dashed=0;fillColor=#E3F3FD;strokeColor=none;fontSize=16;fontColor=#161819;align=left;spacing=15;" parent="SKqaYKTq5XklxY5YzmF5-213" vertex="1">
          <mxGeometry width="720" height="50" as="geometry" />
        </mxCell>
        <mxCell id="SKqaYKTq5XklxY5YzmF5-222" value="Quản lý sách" style="fillColor=none;strokeColor=none;fontSize=14;fontColor=#161819;align=center;" parent="SKqaYKTq5XklxY5YzmF5-221" vertex="1">
          <mxGeometry width="100" height="50" relative="1" as="geometry">
            <mxPoint x="110" as="offset" />
          </mxGeometry>
        </mxCell>
        <mxCell id="SKqaYKTq5XklxY5YzmF5-223" value="" style="verticalLabelPosition=bottom;shadow=0;dashed=0;align=center;html=1;verticalAlign=top;strokeWidth=1;shape=mxgraph.mockup.containers.userMale;strokeColor=#666666;strokeColor2=#008cff;fontSize=15;" parent="SKqaYKTq5XklxY5YzmF5-221" vertex="1">
          <mxGeometry x="670" y="12.5" width="30" height="25" as="geometry" />
        </mxCell>
        <mxCell id="SKqaYKTq5XklxY5YzmF5-224" value="Quản lý chỗ ngồi" style="fillColor=none;strokeColor=none;fontSize=14;fontColor=#161819;align=center;" parent="SKqaYKTq5XklxY5YzmF5-221" vertex="1">
          <mxGeometry x="230" width="100" height="50" as="geometry" />
        </mxCell>
        <mxCell id="SKqaYKTq5XklxY5YzmF5-225" value="Quản lý người dùng" style="fillColor=none;strokeColor=none;fontSize=14;fontColor=#161819;align=center;" parent="SKqaYKTq5XklxY5YzmF5-221" vertex="1">
          <mxGeometry x="360" width="100" height="50" as="geometry" />
        </mxCell>
        <mxCell id="SKqaYKTq5XklxY5YzmF5-308" value="" style="strokeWidth=1;shadow=0;dashed=0;align=center;html=1;shape=mxgraph.mockup.containers.marginRect2;rectMarginTop=32;strokeColor=#666666;gradientColor=none;fontSize=10;" parent="SKqaYKTq5XklxY5YzmF5-213" vertex="1">
          <mxGeometry x="20" y="60" width="680" height="320" as="geometry" />
        </mxCell>
        <mxCell id="SKqaYKTq5XklxY5YzmF5-309" value="" style="strokeWidth=1;shadow=0;dashed=0;align=center;html=1;shape=mxgraph.mockup.containers.topButton;rSize=5;strokeColor=#008cff;fillColor=#008cff;gradientColor=none;resizeWidth=1;movable=0;deletable=1;fontSize=10;" parent="SKqaYKTq5XklxY5YzmF5-308" vertex="1">
          <mxGeometry width="669.5384615384615" height="7" relative="1" as="geometry">
            <mxPoint y="25" as="offset" />
          </mxGeometry>
        </mxCell>
        <mxCell id="SKqaYKTq5XklxY5YzmF5-310" value="&lt;font style=&quot;font-size: 13px;&quot;&gt;Thêm sách&lt;/font&gt;" style="strokeWidth=1;shadow=0;dashed=0;align=center;html=1;shape=mxgraph.mockup.containers.rrect;rSize=0;fontSize=17;fontColor=#ffffff;strokeColor=#008cff;fillColor=#008cff;" parent="SKqaYKTq5XklxY5YzmF5-308" vertex="1">
          <mxGeometry width="80" height="25" relative="1" as="geometry">
            <mxPoint x="10" as="offset" />
          </mxGeometry>
        </mxCell>
        <mxCell id="SKqaYKTq5XklxY5YzmF5-311" value="&lt;p style=&quot;line-height: 120%;&quot;&gt;nhập tên sách&lt;/p&gt;" style="html=1;shadow=0;dashed=0;shape=mxgraph.bootstrap.rrect;rSize=5;fillColor=none;strokeColor=#999999;align=left;spacing=15;fontSize=14;fontColor=#6C767D;" parent="SKqaYKTq5XklxY5YzmF5-308" vertex="1">
          <mxGeometry x="26" y="41.29" width="374" height="28.71" as="geometry" />
        </mxCell>
        <mxCell id="SKqaYKTq5XklxY5YzmF5-314" value="&lt;font style=&quot;font-size: 13px;&quot;&gt;Xóa sách&lt;/font&gt;" style="strokeWidth=1;shadow=0;dashed=0;align=center;html=1;shape=mxgraph.mockup.containers.rrect;rSize=0;fontSize=17;fontColor=#ffffff;strokeColor=#008cff;fillColor=#008cff;" parent="SKqaYKTq5XklxY5YzmF5-308" vertex="1">
          <mxGeometry x="100" width="80" height="25.945945945945944" as="geometry" />
        </mxCell>
        <mxCell id="SKqaYKTq5XklxY5YzmF5-315" value="&lt;span style=&quot;font-size: 13px;&quot;&gt;Chỉnh sửa&lt;/span&gt;" style="strokeWidth=1;shadow=0;dashed=0;align=center;html=1;shape=mxgraph.mockup.containers.rrect;rSize=0;fontSize=17;fontColor=#ffffff;strokeColor=#008cff;fillColor=#008cff;" parent="SKqaYKTq5XklxY5YzmF5-308" vertex="1">
          <mxGeometry x="190" width="80" height="25.945945945945944" as="geometry" />
        </mxCell>
        <mxCell id="SKqaYKTq5XklxY5YzmF5-329" value="&lt;p style=&quot;line-height: 120%;&quot;&gt;nhập tên tác giả&lt;/p&gt;" style="html=1;shadow=0;dashed=0;shape=mxgraph.bootstrap.rrect;rSize=5;fillColor=none;strokeColor=#999999;align=left;spacing=15;fontSize=14;fontColor=#6C767D;" parent="SKqaYKTq5XklxY5YzmF5-308" vertex="1">
          <mxGeometry x="26" y="82.58" width="374" height="27.42" as="geometry" />
        </mxCell>
        <mxCell id="SKqaYKTq5XklxY5YzmF5-330" value="&lt;p style=&quot;line-height: 120%;&quot;&gt;nhập thể loại&lt;/p&gt;" style="html=1;shadow=0;dashed=0;shape=mxgraph.bootstrap.rrect;rSize=5;fillColor=none;strokeColor=#999999;align=left;spacing=15;fontSize=14;fontColor=#6C767D;" parent="SKqaYKTq5XklxY5YzmF5-308" vertex="1">
          <mxGeometry x="230" y="130" width="170" height="26.13" as="geometry" />
        </mxCell>
        <mxCell id="SKqaYKTq5XklxY5YzmF5-331" value="&lt;p style=&quot;line-height: 120%;&quot;&gt;năm xuất bản&lt;/p&gt;" style="html=1;shadow=0;dashed=0;shape=mxgraph.bootstrap.rrect;rSize=5;fillColor=none;strokeColor=#999999;align=left;spacing=15;fontSize=14;fontColor=#6C767D;" parent="SKqaYKTq5XklxY5YzmF5-308" vertex="1">
          <mxGeometry x="26" y="130" width="174" height="24.84" as="geometry" />
        </mxCell>
        <mxCell id="SKqaYKTq5XklxY5YzmF5-332" value="&lt;p style=&quot;line-height: 120%;&quot;&gt;số trang&lt;/p&gt;" style="html=1;shadow=0;dashed=0;shape=mxgraph.bootstrap.rrect;rSize=5;fillColor=none;strokeColor=#999999;align=left;spacing=15;fontSize=14;fontColor=#6C767D;" parent="SKqaYKTq5XklxY5YzmF5-308" vertex="1">
          <mxGeometry x="26" y="170" width="174" height="23.55" as="geometry" />
        </mxCell>
        <mxCell id="SKqaYKTq5XklxY5YzmF5-333" value="&lt;p style=&quot;line-height: 120%;&quot;&gt;vị trí sách trên thư viện&lt;/p&gt;" style="html=1;shadow=0;dashed=0;shape=mxgraph.bootstrap.rrect;rSize=5;fillColor=none;strokeColor=#999999;align=left;spacing=15;fontSize=14;fontColor=#6C767D;" parent="SKqaYKTq5XklxY5YzmF5-308" vertex="1">
          <mxGeometry x="26" y="210" width="284" height="22.26" as="geometry" />
        </mxCell>
        <mxCell id="SKqaYKTq5XklxY5YzmF5-336" value="&amp;nbsp; &amp;nbsp; &amp;nbsp; Tạo" style="html=1;shadow=0;dashed=0;shape=mxgraph.bootstrap.rrect;rSize=5;strokeColor=none;strokeWidth=1;fillColor=#33A64C;fontColor=#FFFFFF;whiteSpace=wrap;align=left;verticalAlign=middle;spacingLeft=0;fontStyle=1;fontSize=14;spacing=5;" parent="SKqaYKTq5XklxY5YzmF5-308" vertex="1">
          <mxGeometry x="173" y="250.00419354838712" width="80" height="30.967741935483872" as="geometry" />
        </mxCell>
        <mxCell id="IpWGc1AUR3NceOaZnzQm-1" value="&lt;p style=&quot;line-height: 120%;&quot;&gt;số quyển&lt;/p&gt;" style="html=1;shadow=0;dashed=0;shape=mxgraph.bootstrap.rrect;rSize=5;fillColor=none;strokeColor=#999999;align=left;spacing=15;fontSize=14;fontColor=#6C767D;" vertex="1" parent="SKqaYKTq5XklxY5YzmF5-308">
          <mxGeometry x="230" y="170" width="170" height="23.55" as="geometry" />
        </mxCell>
        <mxCell id="IpWGc1AUR3NceOaZnzQm-2" value="" style="strokeColor=#999999;verticalLabelPosition=bottom;shadow=0;dashed=0;verticalAlign=top;strokeWidth=2;html=1;shape=mxgraph.mockup.misc.printIcon;fontSize=15;" vertex="1" parent="SKqaYKTq5XklxY5YzmF5-308">
          <mxGeometry x="450" y="70" width="180" height="170" as="geometry" />
        </mxCell>
        <mxCell id="IpWGc1AUR3NceOaZnzQm-21" value="" style="swimlane;startSize=0;fontSize=15;" vertex="1" parent="1">
          <mxGeometry x="1340" y="2060" width="720" height="440" as="geometry" />
        </mxCell>
        <mxCell id="IpWGc1AUR3NceOaZnzQm-22" value="Email address" style="fillColor=none;strokeColor=none;align=left;fontSize=14;" vertex="1" parent="IpWGc1AUR3NceOaZnzQm-21">
          <mxGeometry width="260" height="40" relative="1" as="geometry">
            <mxPoint x="1370" y="20" as="offset" />
          </mxGeometry>
        </mxCell>
        <mxCell id="IpWGc1AUR3NceOaZnzQm-23" value="" style="html=1;shadow=0;dashed=0;shape=mxgraph.bootstrap.rrect;rSize=5;fillColor=none;strokeColor=#999999;align=left;spacing=15;fontSize=14;fontColor=#6C767D;" vertex="1" parent="IpWGc1AUR3NceOaZnzQm-21">
          <mxGeometry width="800" height="30" relative="1" as="geometry">
            <mxPoint x="1370" y="60" as="offset" />
          </mxGeometry>
        </mxCell>
        <mxCell id="IpWGc1AUR3NceOaZnzQm-24" value="We&#39;ll never share your email with anyone else." style="fillColor=none;strokeColor=none;align=left;spacing=2;fontSize=12;fontColor=#999999;" vertex="1" parent="IpWGc1AUR3NceOaZnzQm-21">
          <mxGeometry width="260" height="30" relative="1" as="geometry">
            <mxPoint x="1370" y="90" as="offset" />
          </mxGeometry>
        </mxCell>
        <mxCell id="IpWGc1AUR3NceOaZnzQm-25" value="Password" style="fillColor=none;strokeColor=none;align=left;fontSize=14;" vertex="1" parent="IpWGc1AUR3NceOaZnzQm-21">
          <mxGeometry width="260" height="40" relative="1" as="geometry">
            <mxPoint x="1370" y="120" as="offset" />
          </mxGeometry>
        </mxCell>
        <mxCell id="IpWGc1AUR3NceOaZnzQm-26" value="" style="html=1;shadow=0;dashed=0;shape=mxgraph.bootstrap.rrect;rSize=5;fillColor=none;strokeColor=#999999;align=left;spacing=15;fontSize=14;fontColor=#6C767D;" vertex="1" parent="IpWGc1AUR3NceOaZnzQm-21">
          <mxGeometry width="800" height="30" relative="1" as="geometry">
            <mxPoint x="1370" y="160" as="offset" />
          </mxGeometry>
        </mxCell>
        <mxCell id="IpWGc1AUR3NceOaZnzQm-27" value="Check me out" style="html=1;shadow=0;dashed=0;shape=mxgraph.bootstrap.rrect;rSize=2;fillColor=#EDEDED;strokeColor=#999999;align=left;fontSize=14;fontColor=#000000;labelPosition=right;verticalLabelPosition=middle;verticalAlign=middle;spacingLeft=5;spacingTop=-2;gradientColor=#DEDEDE;" vertex="1" parent="IpWGc1AUR3NceOaZnzQm-21">
          <mxGeometry width="10" height="10" relative="1" as="geometry">
            <mxPoint x="1370" y="210" as="offset" />
          </mxGeometry>
        </mxCell>
        <mxCell id="IpWGc1AUR3NceOaZnzQm-28" value="Sign in" style="html=1;shadow=0;dashed=0;shape=mxgraph.bootstrap.rrect;rSize=5;fillColor=#0085FC;strokeColor=none;align=center;fontSize=14;fontColor=#FFFFFF;" vertex="1" parent="IpWGc1AUR3NceOaZnzQm-21">
          <mxGeometry width="70" height="40" relative="1" as="geometry">
            <mxPoint x="1370" y="240" as="offset" />
          </mxGeometry>
        </mxCell>
        <mxCell id="IpWGc1AUR3NceOaZnzQm-29" value="Trang chủ" style="html=1;shadow=0;dashed=0;fillColor=#E3F3FD;strokeColor=none;fontSize=16;fontColor=#161819;align=left;spacing=15;" vertex="1" parent="IpWGc1AUR3NceOaZnzQm-21">
          <mxGeometry width="720" height="50" as="geometry" />
        </mxCell>
        <mxCell id="IpWGc1AUR3NceOaZnzQm-30" value="Quản lý sách" style="fillColor=none;strokeColor=none;fontSize=14;fontColor=#161819;align=center;" vertex="1" parent="IpWGc1AUR3NceOaZnzQm-29">
          <mxGeometry width="100" height="50" relative="1" as="geometry">
            <mxPoint x="110" as="offset" />
          </mxGeometry>
        </mxCell>
        <mxCell id="IpWGc1AUR3NceOaZnzQm-31" value="" style="verticalLabelPosition=bottom;shadow=0;dashed=0;align=center;html=1;verticalAlign=top;strokeWidth=1;shape=mxgraph.mockup.containers.userMale;strokeColor=#666666;strokeColor2=#008cff;fontSize=15;" vertex="1" parent="IpWGc1AUR3NceOaZnzQm-29">
          <mxGeometry x="670" y="12.5" width="30" height="25" as="geometry" />
        </mxCell>
        <mxCell id="IpWGc1AUR3NceOaZnzQm-32" value="Quản lý chỗ ngồi" style="fillColor=none;strokeColor=none;fontSize=14;fontColor=#161819;align=center;" vertex="1" parent="IpWGc1AUR3NceOaZnzQm-29">
          <mxGeometry x="230" width="100" height="50" as="geometry" />
        </mxCell>
        <mxCell id="IpWGc1AUR3NceOaZnzQm-33" value="Quản lý người dùng" style="fillColor=none;strokeColor=none;fontSize=14;fontColor=#161819;align=center;" vertex="1" parent="IpWGc1AUR3NceOaZnzQm-29">
          <mxGeometry x="360" width="100" height="50" as="geometry" />
        </mxCell>
        <mxCell id="IpWGc1AUR3NceOaZnzQm-34" value="" style="strokeWidth=1;shadow=0;dashed=0;align=center;html=1;shape=mxgraph.mockup.containers.marginRect2;rectMarginTop=32;strokeColor=#666666;gradientColor=none;fontSize=10;" vertex="1" parent="IpWGc1AUR3NceOaZnzQm-21">
          <mxGeometry x="20" y="60" width="680" height="370" as="geometry" />
        </mxCell>
        <mxCell id="IpWGc1AUR3NceOaZnzQm-35" value="" style="strokeWidth=1;shadow=0;dashed=0;align=center;html=1;shape=mxgraph.mockup.containers.topButton;rSize=5;strokeColor=#008cff;fillColor=#008cff;gradientColor=none;resizeWidth=1;movable=0;deletable=1;fontSize=10;" vertex="1" parent="IpWGc1AUR3NceOaZnzQm-34">
          <mxGeometry width="669.5384615384615" height="7" relative="1" as="geometry">
            <mxPoint y="25" as="offset" />
          </mxGeometry>
        </mxCell>
        <mxCell id="IpWGc1AUR3NceOaZnzQm-36" value="&lt;font style=&quot;font-size: 13px;&quot;&gt;Thêm sách&lt;/font&gt;" style="strokeWidth=1;shadow=0;dashed=0;align=center;html=1;shape=mxgraph.mockup.containers.rrect;rSize=0;fontSize=17;fontColor=#ffffff;strokeColor=#008cff;fillColor=#008cff;" vertex="1" parent="IpWGc1AUR3NceOaZnzQm-34">
          <mxGeometry width="80" height="25" relative="1" as="geometry">
            <mxPoint x="10" as="offset" />
          </mxGeometry>
        </mxCell>
        <mxCell id="IpWGc1AUR3NceOaZnzQm-37" value="&lt;p style=&quot;line-height: 120%;&quot;&gt;nhập tên sách (bắt buộc nhập)&lt;/p&gt;" style="html=1;shadow=0;dashed=0;shape=mxgraph.bootstrap.rrect;rSize=5;fillColor=none;strokeColor=#999999;align=left;spacing=15;fontSize=14;fontColor=#6C767D;" vertex="1" parent="IpWGc1AUR3NceOaZnzQm-34">
          <mxGeometry x="20" y="43.52941176470588" width="408" height="32.64705882352941" as="geometry" />
        </mxCell>
        <mxCell id="IpWGc1AUR3NceOaZnzQm-38" value="&lt;font color=&quot;#6c767d&quot;&gt;&lt;b&gt;&lt;font style=&quot;&quot;&gt;&lt;font style=&quot;font-size: 13px;&quot;&gt;Tên sách&lt;/font&gt;&lt;br style=&quot;font-size: 10px&quot;&gt;&lt;font style=&quot;font-size: 13px;&quot;&gt;Tác giả&lt;br&gt;&lt;/font&gt;&lt;/font&gt;&lt;/b&gt;&lt;/font&gt;&lt;br style=&quot;font-size: 14px&quot;&gt;&lt;font style=&quot;font-size: 11px;&quot;&gt;Người đang mượn: (có thì show ra không thì để chống)&lt;/font&gt;" style="html=1;shadow=0;dashed=0;shape=mxgraph.bootstrap.rrect;rSize=5;strokeColor=#DFDFDF;html=1;whiteSpace=wrap;fillColor=#ffffff;fontColor=#000000;verticalAlign=top;align=left;spacing=20;fontSize=14;" vertex="1" parent="IpWGc1AUR3NceOaZnzQm-34">
          <mxGeometry x="20" y="92.5" width="209.23" height="127.5" as="geometry" />
        </mxCell>
        <mxCell id="IpWGc1AUR3NceOaZnzQm-39" value="&lt;span style=&quot;font-size: 12px;&quot;&gt;Chỉnh sửa&lt;/span&gt;" style="html=1;shadow=0;dashed=0;shape=mxgraph.bootstrap.rrect;rSize=5;perimeter=none;whiteSpace=wrap;fillColor=none;strokeColor=none;fontColor=#0085FC;resizeWidth=1;fontSize=14;align=center;" vertex="1" parent="IpWGc1AUR3NceOaZnzQm-38">
          <mxGeometry y="1" width="66.95359999999998" height="40" relative="1" as="geometry">
            <mxPoint x="130" y="-40" as="offset" />
          </mxGeometry>
        </mxCell>
        <mxCell id="IpWGc1AUR3NceOaZnzQm-40" value="&lt;font style=&quot;font-size: 13px;&quot;&gt;Xóa sách&lt;/font&gt;" style="strokeWidth=1;shadow=0;dashed=0;align=center;html=1;shape=mxgraph.mockup.containers.rrect;rSize=0;fontSize=17;fontColor=#ffffff;strokeColor=#008cff;fillColor=#008cff;" vertex="1" parent="IpWGc1AUR3NceOaZnzQm-34">
          <mxGeometry x="100" width="80" height="30" as="geometry" />
        </mxCell>
        <mxCell id="IpWGc1AUR3NceOaZnzQm-41" value="&lt;span style=&quot;font-size: 13px;&quot;&gt;Chỉnh sửa&lt;/span&gt;" style="strokeWidth=1;shadow=0;dashed=0;align=center;html=1;shape=mxgraph.mockup.containers.rrect;rSize=0;fontSize=17;fontColor=#ffffff;strokeColor=#008cff;fillColor=#008cff;" vertex="1" parent="IpWGc1AUR3NceOaZnzQm-34">
          <mxGeometry x="190" width="80" height="30" as="geometry" />
        </mxCell>
        <mxCell id="IpWGc1AUR3NceOaZnzQm-42" value="&lt;font color=&quot;#6c767d&quot;&gt;&lt;b&gt;&lt;font style=&quot;&quot;&gt;&lt;font style=&quot;font-size: 13px;&quot;&gt;Tên sách&lt;/font&gt;&lt;br style=&quot;font-size: 10px&quot;&gt;&lt;font style=&quot;font-size: 13px;&quot;&gt;Tác giả&lt;br&gt;&lt;/font&gt;&lt;/font&gt;&lt;/b&gt;&lt;/font&gt;&lt;br style=&quot;font-size: 14px&quot;&gt;&lt;font style=&quot;font-size: 11px;&quot;&gt;Người đang mượn: (có thì show ra không thì để chống)&lt;/font&gt;" style="html=1;shadow=0;dashed=0;shape=mxgraph.bootstrap.rrect;rSize=5;strokeColor=#DFDFDF;html=1;whiteSpace=wrap;fillColor=#ffffff;fontColor=#000000;verticalAlign=top;align=left;spacing=20;fontSize=14;" vertex="1" parent="IpWGc1AUR3NceOaZnzQm-34">
          <mxGeometry x="240" y="92.5" width="209.23" height="127.5" as="geometry" />
        </mxCell>
        <mxCell id="IpWGc1AUR3NceOaZnzQm-43" value="&lt;span style=&quot;font-size: 12px;&quot;&gt;Chỉnh sửa&lt;/span&gt;" style="html=1;shadow=0;dashed=0;shape=mxgraph.bootstrap.rrect;rSize=5;perimeter=none;whiteSpace=wrap;fillColor=none;strokeColor=none;fontColor=#0085FC;resizeWidth=1;fontSize=14;align=center;" vertex="1" parent="IpWGc1AUR3NceOaZnzQm-42">
          <mxGeometry y="1" width="66.95359999999998" height="40" relative="1" as="geometry">
            <mxPoint x="130" y="-40" as="offset" />
          </mxGeometry>
        </mxCell>
        <mxCell id="IpWGc1AUR3NceOaZnzQm-44" value="&lt;font color=&quot;#6c767d&quot;&gt;&lt;b&gt;&lt;font style=&quot;&quot;&gt;&lt;font style=&quot;font-size: 13px;&quot;&gt;Tên sách&lt;/font&gt;&lt;br style=&quot;font-size: 10px&quot;&gt;&lt;font style=&quot;font-size: 13px;&quot;&gt;Tác giả&lt;br&gt;&lt;/font&gt;&lt;/font&gt;&lt;/b&gt;&lt;/font&gt;&lt;br style=&quot;font-size: 14px&quot;&gt;&lt;font style=&quot;font-size: 11px;&quot;&gt;Người đang mượn: (có thì show ra không thì để chống)&lt;/font&gt;" style="html=1;shadow=0;dashed=0;shape=mxgraph.bootstrap.rrect;rSize=5;strokeColor=#DFDFDF;html=1;whiteSpace=wrap;fillColor=#ffffff;fontColor=#000000;verticalAlign=top;align=left;spacing=20;fontSize=14;" vertex="1" parent="IpWGc1AUR3NceOaZnzQm-34">
          <mxGeometry x="460" y="92.5" width="209.23" height="127.5" as="geometry" />
        </mxCell>
        <mxCell id="IpWGc1AUR3NceOaZnzQm-45" value="&lt;span style=&quot;font-size: 12px;&quot;&gt;Chỉnh sửa&lt;/span&gt;" style="html=1;shadow=0;dashed=0;shape=mxgraph.bootstrap.rrect;rSize=5;perimeter=none;whiteSpace=wrap;fillColor=none;strokeColor=none;fontColor=#0085FC;resizeWidth=1;fontSize=14;align=center;" vertex="1" parent="IpWGc1AUR3NceOaZnzQm-44">
          <mxGeometry y="1" width="66.95359999999998" height="40" relative="1" as="geometry">
            <mxPoint x="130" y="-40" as="offset" />
          </mxGeometry>
        </mxCell>
        <mxCell id="IpWGc1AUR3NceOaZnzQm-46" value="&lt;font color=&quot;#6c767d&quot;&gt;&lt;b&gt;&lt;font style=&quot;&quot;&gt;&lt;font style=&quot;font-size: 13px;&quot;&gt;Tên sách&lt;/font&gt;&lt;br style=&quot;font-size: 10px&quot;&gt;&lt;font style=&quot;font-size: 13px;&quot;&gt;Tác giả&lt;br&gt;&lt;/font&gt;&lt;/font&gt;&lt;/b&gt;&lt;/font&gt;&lt;br style=&quot;font-size: 14px&quot;&gt;&lt;font style=&quot;font-size: 11px;&quot;&gt;Người đang mượn: (có thì show ra không thì để chống)&lt;/font&gt;" style="html=1;shadow=0;dashed=0;shape=mxgraph.bootstrap.rrect;rSize=5;strokeColor=#DFDFDF;html=1;whiteSpace=wrap;fillColor=#ffffff;fontColor=#000000;verticalAlign=top;align=left;spacing=20;fontSize=14;" vertex="1" parent="IpWGc1AUR3NceOaZnzQm-34">
          <mxGeometry x="20" y="230" width="209.23" height="127.5" as="geometry" />
        </mxCell>
        <mxCell id="IpWGc1AUR3NceOaZnzQm-47" value="&lt;span style=&quot;font-size: 12px;&quot;&gt;Chỉnh sửa&lt;/span&gt;" style="html=1;shadow=0;dashed=0;shape=mxgraph.bootstrap.rrect;rSize=5;perimeter=none;whiteSpace=wrap;fillColor=none;strokeColor=none;fontColor=#0085FC;resizeWidth=1;fontSize=14;align=center;" vertex="1" parent="IpWGc1AUR3NceOaZnzQm-46">
          <mxGeometry y="1" width="66.95359999999998" height="40" relative="1" as="geometry">
            <mxPoint x="130" y="-40" as="offset" />
          </mxGeometry>
        </mxCell>
        <mxCell id="IpWGc1AUR3NceOaZnzQm-48" value="&lt;font color=&quot;#6c767d&quot;&gt;&lt;b&gt;&lt;font style=&quot;&quot;&gt;&lt;font style=&quot;font-size: 13px;&quot;&gt;Tên sách&lt;/font&gt;&lt;br style=&quot;font-size: 10px&quot;&gt;&lt;font style=&quot;font-size: 13px;&quot;&gt;Tác giả&lt;br&gt;&lt;/font&gt;&lt;/font&gt;&lt;/b&gt;&lt;/font&gt;&lt;br style=&quot;font-size: 14px&quot;&gt;&lt;font style=&quot;font-size: 11px;&quot;&gt;Người đang mượn: (có thì show ra không thì để chống)&lt;/font&gt;" style="html=1;shadow=0;dashed=0;shape=mxgraph.bootstrap.rrect;rSize=5;strokeColor=#DFDFDF;html=1;whiteSpace=wrap;fillColor=#ffffff;fontColor=#000000;verticalAlign=top;align=left;spacing=20;fontSize=14;" vertex="1" parent="IpWGc1AUR3NceOaZnzQm-34">
          <mxGeometry x="240" y="230" width="209.23" height="127.5" as="geometry" />
        </mxCell>
        <mxCell id="IpWGc1AUR3NceOaZnzQm-49" value="&lt;span style=&quot;font-size: 12px;&quot;&gt;Chỉnh sửa&lt;/span&gt;" style="html=1;shadow=0;dashed=0;shape=mxgraph.bootstrap.rrect;rSize=5;perimeter=none;whiteSpace=wrap;fillColor=none;strokeColor=none;fontColor=#0085FC;resizeWidth=1;fontSize=14;align=center;" vertex="1" parent="IpWGc1AUR3NceOaZnzQm-48">
          <mxGeometry y="1" width="66.95359999999998" height="40" relative="1" as="geometry">
            <mxPoint x="130" y="-40" as="offset" />
          </mxGeometry>
        </mxCell>
        <mxCell id="IpWGc1AUR3NceOaZnzQm-50" value="&lt;font color=&quot;#6c767d&quot;&gt;&lt;b&gt;&lt;font style=&quot;&quot;&gt;&lt;font style=&quot;font-size: 13px;&quot;&gt;Tên sách&lt;/font&gt;&lt;br style=&quot;font-size: 10px&quot;&gt;&lt;font style=&quot;font-size: 13px;&quot;&gt;Tác giả&lt;br&gt;&lt;/font&gt;&lt;/font&gt;&lt;/b&gt;&lt;/font&gt;&lt;br style=&quot;font-size: 14px&quot;&gt;&lt;font style=&quot;font-size: 11px;&quot;&gt;Người đang mượn: (có thì show ra không thì để chống)&lt;/font&gt;" style="html=1;shadow=0;dashed=0;shape=mxgraph.bootstrap.rrect;rSize=5;strokeColor=#DFDFDF;html=1;whiteSpace=wrap;fillColor=#ffffff;fontColor=#000000;verticalAlign=top;align=left;spacing=20;fontSize=14;" vertex="1" parent="IpWGc1AUR3NceOaZnzQm-34">
          <mxGeometry x="460" y="230" width="209.23" height="127.5" as="geometry" />
        </mxCell>
        <mxCell id="IpWGc1AUR3NceOaZnzQm-51" value="&lt;span style=&quot;font-size: 12px;&quot;&gt;Chỉnh sửa&lt;/span&gt;" style="html=1;shadow=0;dashed=0;shape=mxgraph.bootstrap.rrect;rSize=5;perimeter=none;whiteSpace=wrap;fillColor=none;strokeColor=none;fontColor=#0085FC;resizeWidth=1;fontSize=14;align=center;" vertex="1" parent="IpWGc1AUR3NceOaZnzQm-50">
          <mxGeometry y="1" width="66.95359999999998" height="40" relative="1" as="geometry">
            <mxPoint x="130" y="-40" as="offset" />
          </mxGeometry>
        </mxCell>
        <mxCell id="IpWGc1AUR3NceOaZnzQm-52" value="&lt;font style=&quot;font-size: 15px;&quot;&gt;Admin&lt;br&gt;(quản lý sách)&lt;br&gt;Chỉnh sửa&lt;br&gt;&lt;/font&gt;" style="shape=step;perimeter=stepPerimeter;whiteSpace=wrap;html=1;fixedSize=1;fontSize=20;" vertex="1" parent="1">
          <mxGeometry x="1150" y="2250" width="170" height="80" as="geometry" />
        </mxCell>
        <mxCell id="IpWGc1AUR3NceOaZnzQm-53" value="" style="shape=singleArrow;direction=south;whiteSpace=wrap;html=1;" vertex="1" parent="1">
          <mxGeometry x="1660" y="2500" width="60" height="100" as="geometry" />
        </mxCell>
        <mxCell id="IpWGc1AUR3NceOaZnzQm-54" value="Click vào nút&amp;nbsp;&lt;span style=&quot;color: rgb(0, 133, 252);&quot;&gt;Chỉnh sửa&lt;/span&gt;" style="text;html=1;strokeColor=none;fillColor=none;align=center;verticalAlign=middle;whiteSpace=wrap;rounded=0;" vertex="1" parent="1">
          <mxGeometry x="1680" y="2535" width="180" height="30" as="geometry" />
        </mxCell>
        <mxCell id="IpWGc1AUR3NceOaZnzQm-56" value="" style="swimlane;startSize=0;fontSize=15;" vertex="1" parent="1">
          <mxGeometry x="1340" y="2600" width="720" height="400" as="geometry" />
        </mxCell>
        <mxCell id="IpWGc1AUR3NceOaZnzQm-57" value="Email address" style="fillColor=none;strokeColor=none;align=left;fontSize=14;" vertex="1" parent="IpWGc1AUR3NceOaZnzQm-56">
          <mxGeometry width="260" height="40" relative="1" as="geometry">
            <mxPoint x="1370" y="20" as="offset" />
          </mxGeometry>
        </mxCell>
        <mxCell id="IpWGc1AUR3NceOaZnzQm-58" value="" style="html=1;shadow=0;dashed=0;shape=mxgraph.bootstrap.rrect;rSize=5;fillColor=none;strokeColor=#999999;align=left;spacing=15;fontSize=14;fontColor=#6C767D;" vertex="1" parent="IpWGc1AUR3NceOaZnzQm-56">
          <mxGeometry width="800" height="30" relative="1" as="geometry">
            <mxPoint x="1370" y="60" as="offset" />
          </mxGeometry>
        </mxCell>
        <mxCell id="IpWGc1AUR3NceOaZnzQm-59" value="We&#39;ll never share your email with anyone else." style="fillColor=none;strokeColor=none;align=left;spacing=2;fontSize=12;fontColor=#999999;" vertex="1" parent="IpWGc1AUR3NceOaZnzQm-56">
          <mxGeometry width="260" height="30" relative="1" as="geometry">
            <mxPoint x="1370" y="90" as="offset" />
          </mxGeometry>
        </mxCell>
        <mxCell id="IpWGc1AUR3NceOaZnzQm-60" value="Password" style="fillColor=none;strokeColor=none;align=left;fontSize=14;" vertex="1" parent="IpWGc1AUR3NceOaZnzQm-56">
          <mxGeometry width="260" height="40" relative="1" as="geometry">
            <mxPoint x="1370" y="120" as="offset" />
          </mxGeometry>
        </mxCell>
        <mxCell id="IpWGc1AUR3NceOaZnzQm-61" value="" style="html=1;shadow=0;dashed=0;shape=mxgraph.bootstrap.rrect;rSize=5;fillColor=none;strokeColor=#999999;align=left;spacing=15;fontSize=14;fontColor=#6C767D;" vertex="1" parent="IpWGc1AUR3NceOaZnzQm-56">
          <mxGeometry width="800" height="30" relative="1" as="geometry">
            <mxPoint x="1370" y="160" as="offset" />
          </mxGeometry>
        </mxCell>
        <mxCell id="IpWGc1AUR3NceOaZnzQm-62" value="Check me out" style="html=1;shadow=0;dashed=0;shape=mxgraph.bootstrap.rrect;rSize=2;fillColor=#EDEDED;strokeColor=#999999;align=left;fontSize=14;fontColor=#000000;labelPosition=right;verticalLabelPosition=middle;verticalAlign=middle;spacingLeft=5;spacingTop=-2;gradientColor=#DEDEDE;" vertex="1" parent="IpWGc1AUR3NceOaZnzQm-56">
          <mxGeometry width="10" height="10" relative="1" as="geometry">
            <mxPoint x="1370" y="210" as="offset" />
          </mxGeometry>
        </mxCell>
        <mxCell id="IpWGc1AUR3NceOaZnzQm-63" value="Sign in" style="html=1;shadow=0;dashed=0;shape=mxgraph.bootstrap.rrect;rSize=5;fillColor=#0085FC;strokeColor=none;align=center;fontSize=14;fontColor=#FFFFFF;" vertex="1" parent="IpWGc1AUR3NceOaZnzQm-56">
          <mxGeometry width="70" height="40" relative="1" as="geometry">
            <mxPoint x="1370" y="240" as="offset" />
          </mxGeometry>
        </mxCell>
        <mxCell id="IpWGc1AUR3NceOaZnzQm-64" value="Trang chủ" style="html=1;shadow=0;dashed=0;fillColor=#E3F3FD;strokeColor=none;fontSize=16;fontColor=#161819;align=left;spacing=15;" vertex="1" parent="IpWGc1AUR3NceOaZnzQm-56">
          <mxGeometry width="720" height="50" as="geometry" />
        </mxCell>
        <mxCell id="IpWGc1AUR3NceOaZnzQm-65" value="Quản lý sách" style="fillColor=none;strokeColor=none;fontSize=14;fontColor=#161819;align=center;" vertex="1" parent="IpWGc1AUR3NceOaZnzQm-64">
          <mxGeometry width="100" height="50" relative="1" as="geometry">
            <mxPoint x="110" as="offset" />
          </mxGeometry>
        </mxCell>
        <mxCell id="IpWGc1AUR3NceOaZnzQm-66" value="" style="verticalLabelPosition=bottom;shadow=0;dashed=0;align=center;html=1;verticalAlign=top;strokeWidth=1;shape=mxgraph.mockup.containers.userMale;strokeColor=#666666;strokeColor2=#008cff;fontSize=15;" vertex="1" parent="IpWGc1AUR3NceOaZnzQm-64">
          <mxGeometry x="670" y="12.5" width="30" height="25" as="geometry" />
        </mxCell>
        <mxCell id="IpWGc1AUR3NceOaZnzQm-67" value="Quản lý chỗ ngồi" style="fillColor=none;strokeColor=none;fontSize=14;fontColor=#161819;align=center;" vertex="1" parent="IpWGc1AUR3NceOaZnzQm-64">
          <mxGeometry x="230" width="100" height="50" as="geometry" />
        </mxCell>
        <mxCell id="IpWGc1AUR3NceOaZnzQm-68" value="Quản lý người dùng" style="fillColor=none;strokeColor=none;fontSize=14;fontColor=#161819;align=center;" vertex="1" parent="IpWGc1AUR3NceOaZnzQm-64">
          <mxGeometry x="360" width="100" height="50" as="geometry" />
        </mxCell>
        <mxCell id="IpWGc1AUR3NceOaZnzQm-69" value="" style="strokeWidth=1;shadow=0;dashed=0;align=center;html=1;shape=mxgraph.mockup.containers.marginRect2;rectMarginTop=32;strokeColor=#666666;gradientColor=none;fontSize=10;" vertex="1" parent="IpWGc1AUR3NceOaZnzQm-56">
          <mxGeometry x="20" y="60" width="680" height="320" as="geometry" />
        </mxCell>
        <mxCell id="IpWGc1AUR3NceOaZnzQm-70" value="" style="strokeWidth=1;shadow=0;dashed=0;align=center;html=1;shape=mxgraph.mockup.containers.topButton;rSize=5;strokeColor=#008cff;fillColor=#008cff;gradientColor=none;resizeWidth=1;movable=0;deletable=1;fontSize=10;" vertex="1" parent="IpWGc1AUR3NceOaZnzQm-69">
          <mxGeometry width="669.5384615384615" height="7" relative="1" as="geometry">
            <mxPoint y="25" as="offset" />
          </mxGeometry>
        </mxCell>
        <mxCell id="IpWGc1AUR3NceOaZnzQm-71" value="&lt;font style=&quot;font-size: 13px;&quot;&gt;Thêm sách&lt;/font&gt;" style="strokeWidth=1;shadow=0;dashed=0;align=center;html=1;shape=mxgraph.mockup.containers.rrect;rSize=0;fontSize=17;fontColor=#ffffff;strokeColor=#008cff;fillColor=#008cff;" vertex="1" parent="IpWGc1AUR3NceOaZnzQm-69">
          <mxGeometry width="80" height="25" relative="1" as="geometry">
            <mxPoint x="10" as="offset" />
          </mxGeometry>
        </mxCell>
        <mxCell id="IpWGc1AUR3NceOaZnzQm-72" value="&lt;p style=&quot;line-height: 120%;&quot;&gt;tên sách (được nhập sẵn vì đã nhập ở trên)&lt;/p&gt;" style="html=1;shadow=0;dashed=0;shape=mxgraph.bootstrap.rrect;rSize=5;fillColor=none;strokeColor=#999999;align=left;spacing=15;fontSize=14;fontColor=#6C767D;" vertex="1" parent="IpWGc1AUR3NceOaZnzQm-69">
          <mxGeometry x="26" y="41.29" width="374" height="28.71" as="geometry" />
        </mxCell>
        <mxCell id="IpWGc1AUR3NceOaZnzQm-73" value="&lt;font style=&quot;font-size: 13px;&quot;&gt;Xóa sách&lt;/font&gt;" style="strokeWidth=1;shadow=0;dashed=0;align=center;html=1;shape=mxgraph.mockup.containers.rrect;rSize=0;fontSize=17;fontColor=#ffffff;strokeColor=#008cff;fillColor=#008cff;" vertex="1" parent="IpWGc1AUR3NceOaZnzQm-69">
          <mxGeometry x="100" width="80" height="25.945945945945944" as="geometry" />
        </mxCell>
        <mxCell id="IpWGc1AUR3NceOaZnzQm-74" value="&lt;span style=&quot;font-size: 13px;&quot;&gt;Chỉnh sửa&lt;/span&gt;" style="strokeWidth=1;shadow=0;dashed=0;align=center;html=1;shape=mxgraph.mockup.containers.rrect;rSize=0;fontSize=17;fontColor=#ffffff;strokeColor=#008cff;fillColor=#008cff;" vertex="1" parent="IpWGc1AUR3NceOaZnzQm-69">
          <mxGeometry x="190" width="80" height="25.945945945945944" as="geometry" />
        </mxCell>
        <mxCell id="IpWGc1AUR3NceOaZnzQm-75" value="&lt;p style=&quot;line-height: 120%;&quot;&gt;sửa tên tác giả&lt;/p&gt;" style="html=1;shadow=0;dashed=0;shape=mxgraph.bootstrap.rrect;rSize=5;fillColor=none;strokeColor=#999999;align=left;spacing=15;fontSize=14;fontColor=#6C767D;" vertex="1" parent="IpWGc1AUR3NceOaZnzQm-69">
          <mxGeometry x="26" y="82.58" width="374" height="27.42" as="geometry" />
        </mxCell>
        <mxCell id="IpWGc1AUR3NceOaZnzQm-76" value="&lt;p style=&quot;line-height: 120%;&quot;&gt;sửa thể loại&lt;/p&gt;" style="html=1;shadow=0;dashed=0;shape=mxgraph.bootstrap.rrect;rSize=5;fillColor=none;strokeColor=#999999;align=left;spacing=15;fontSize=14;fontColor=#6C767D;" vertex="1" parent="IpWGc1AUR3NceOaZnzQm-69">
          <mxGeometry x="230" y="130" width="170" height="26.13" as="geometry" />
        </mxCell>
        <mxCell id="IpWGc1AUR3NceOaZnzQm-77" value="&lt;p style=&quot;line-height: 120%;&quot;&gt;sửa năm xuất bản&lt;/p&gt;" style="html=1;shadow=0;dashed=0;shape=mxgraph.bootstrap.rrect;rSize=5;fillColor=none;strokeColor=#999999;align=left;spacing=15;fontSize=14;fontColor=#6C767D;" vertex="1" parent="IpWGc1AUR3NceOaZnzQm-69">
          <mxGeometry x="26" y="130" width="174" height="24.84" as="geometry" />
        </mxCell>
        <mxCell id="IpWGc1AUR3NceOaZnzQm-78" value="&lt;p style=&quot;line-height: 120%;&quot;&gt;sửa số trang&lt;/p&gt;" style="html=1;shadow=0;dashed=0;shape=mxgraph.bootstrap.rrect;rSize=5;fillColor=none;strokeColor=#999999;align=left;spacing=15;fontSize=14;fontColor=#6C767D;" vertex="1" parent="IpWGc1AUR3NceOaZnzQm-69">
          <mxGeometry x="26" y="170" width="174" height="23.55" as="geometry" />
        </mxCell>
        <mxCell id="IpWGc1AUR3NceOaZnzQm-79" value="&lt;p style=&quot;line-height: 120%;&quot;&gt;sửa vị trí sách trên thư viện&lt;/p&gt;" style="html=1;shadow=0;dashed=0;shape=mxgraph.bootstrap.rrect;rSize=5;fillColor=none;strokeColor=#999999;align=left;spacing=15;fontSize=14;fontColor=#6C767D;" vertex="1" parent="IpWGc1AUR3NceOaZnzQm-69">
          <mxGeometry x="26" y="210" width="284" height="22.26" as="geometry" />
        </mxCell>
        <mxCell id="IpWGc1AUR3NceOaZnzQm-80" value="&amp;nbsp;Cập nhật" style="html=1;shadow=0;dashed=0;shape=mxgraph.bootstrap.rrect;rSize=5;strokeColor=none;strokeWidth=1;fillColor=#33A64C;fontColor=#FFFFFF;whiteSpace=wrap;align=left;verticalAlign=middle;spacingLeft=0;fontStyle=1;fontSize=14;spacing=5;" vertex="1" parent="IpWGc1AUR3NceOaZnzQm-69">
          <mxGeometry x="173" y="250.00419354838712" width="80" height="30.967741935483872" as="geometry" />
        </mxCell>
        <mxCell id="IpWGc1AUR3NceOaZnzQm-82" value="" style="strokeColor=#999999;verticalLabelPosition=bottom;shadow=0;dashed=0;verticalAlign=top;strokeWidth=2;html=1;shape=mxgraph.mockup.misc.printIcon;fontSize=15;" vertex="1" parent="IpWGc1AUR3NceOaZnzQm-69">
          <mxGeometry x="450" y="70" width="180" height="170" as="geometry" />
        </mxCell>
        <mxCell id="IpWGc1AUR3NceOaZnzQm-84" value="&lt;font style=&quot;font-size: 15px;&quot;&gt;&lt;b style=&quot;&quot;&gt;&lt;font style=&quot;font-size: 17px;&quot;&gt;Lưu ý:&lt;/font&gt;&lt;/b&gt;&lt;span style=&quot;font-size: 14px;&quot;&gt;&lt;b&gt;&lt;br&gt;&lt;/b&gt;&lt;/span&gt;&amp;nbsp;N&lt;font style=&quot;font-size: 15px;&quot;&gt;goài tên sách được nhập sẵn từ trên thì sẽ lấy ra cả những dữ liệu như tên tác giả, năm xuất bản, thể loại, số trang và vị trí sách trên thư viện. Sau đó admin muốn thay đổi phần nào thì tự thay đổi.&lt;/font&gt;&lt;/font&gt;" style="shape=note;whiteSpace=wrap;html=1;backgroundOutline=1;darkOpacity=0.05;" vertex="1" parent="1">
          <mxGeometry x="2090" y="2640" width="190" height="290" as="geometry" />
        </mxCell>
      </root>
    </mxGraphModel>
  </diagram>
</mxfile>
